<svg version="1.1" xmlns="http://www.w3.org/2000/svg" xmlns:xlink="http://www.w3.org/1999/xlink" width="686" height="459"><defs><clipPath id="wRTUJWfaTrsq"><path fill="none" stroke="none" d=" M 0 0 L 686 0 L 686 459 L 0 459 L 0 0 Z"/></clipPath></defs><g transform="scale(1,1)" clip-path="url(#wRTUJWfaTrsq)"><g transform="translate(-382,-243)"><rect fill="rgb(255,255,255)" stroke="none" x="0" y="0" width="1431" height="1110" fill-opacity="1"/><path fill="none" stroke="rgb(192,192,192)" paint-order="fill stroke markers" d=" M 57.5 0.5 L 57.5 1110.5 M 57.5 0.5 L 57.5 1110.5 M 138.5 0.5 L 138.5 1110.5 M 219.5 0.5 L 219.5 1110.5 M 300.5 0.5 L 300.5 1110.5 M 381.5 0.5 L 381.5 1110.5 M 462.5 0.5 L 462.5 1110.5 M 543.5 0.5 L 543.5 1110.5 M 624.5 0.5 L 624.5 1110.5 M 705.5 0.5 L 705.5 1110.5 M 786.5 0.5 L 786.5 1110.5 M 867.5 0.5 L 867.5 1110.5 M 948.5 0.5 L 948.5 1110.5 M 1029.5 0.5 L 1029.5 1110.5 M 1110.5 0.5 L 1110.5 1110.5 M 1191.5 0.5 L 1191.5 1110.5 M 1272.5 0.5 L 1272.5 1110.5 M 1353.5 0.5 L 1353.5 1110.5" stroke-opacity="1" stroke-linecap="round" stroke-linejoin="round" stroke-miterlimit="10"/><path fill="none" stroke="rgb(192,192,192)" paint-order="fill stroke markers" d=" M 8.5 0.5 L 8.5 1110.5 M 24.5 0.5 L 24.5 1110.5 M 40.5 0.5 L 40.5 1110.5 M 73.5 0.5 L 73.5 1110.5 M 89.5 0.5 L 89.5 1110.5 M 105.5 0.5 L 105.5 1110.5 M 121.5 0.5 L 121.5 1110.5 M 154.5 0.5 L 154.5 1110.5 M 170.5 0.5 L 170.5 1110.5 M 186.5 0.5 L 186.5 1110.5 M 202.5 0.5 L 202.5 1110.5 M 235.5 0.5 L 235.5 1110.5 M 251.5 0.5 L 251.5 1110.5 M 267.5 0.5 L 267.5 1110.5 M 283.5 0.5 L 283.5 1110.5 M 316.5 0.5 L 316.5 1110.5 M 332.5 0.5 L 332.5 1110.5 M 348.5 0.5 L 348.5 1110.5 M 364.5 0.5 L 364.5 1110.5 M 397.5 0.5 L 397.5 1110.5 M 413.5 0.5 L 413.5 1110.5 M 429.5 0.5 L 429.5 1110.5 M 445.5 0.5 L 445.5 1110.5 M 478.5 0.5 L 478.5 1110.5 M 494.5 0.5 L 494.5 1110.5 M 510.5 0.5 L 510.5 1110.5 M 526.5 0.5 L 526.5 1110.5 M 559.5 0.5 L 559.5 1110.5 M 575.5 0.5 L 575.5 1110.5 M 591.5 0.5 L 591.5 1110.5 M 608.5 0.5 L 608.5 1110.5 M 640.5 0.5 L 640.5 1110.5 M 656.5 0.5 L 656.5 1110.5 M 672.5 0.5 L 672.5 1110.5 M 689.5 0.5 L 689.5 1110.5 M 721.5 0.5 L 721.5 1110.5 M 737.5 0.5 L 737.5 1110.5 M 753.5 0.5 L 753.5 1110.5 M 770.5 0.5 L 770.5 1110.5 M 802.5 0.5 L 802.5 1110.5 M 818.5 0.5 L 818.5 1110.5 M 834.5 0.5 L 834.5 1110.5 M 851.5 0.5 L 851.5 1110.5 M 883.5 0.5 L 883.5 1110.5 M 899.5 0.5 L 899.5 1110.5 M 915.5 0.5 L 915.5 1110.5 M 932.5 0.5 L 932.5 1110.5 M 964.5 0.5 L 964.5 1110.5 M 980.5 0.5 L 980.5 1110.5 M 996.5 0.5 L 996.5 1110.5 M 1013.5 0.5 L 1013.5 1110.5 M 1045.5 0.5 L 1045.5 1110.5 M 1061.5 0.5 L 1061.5 1110.5 M 1077.5 0.5 L 1077.5 1110.5 M 1094.5 0.5 L 1094.5 1110.5 M 1126.5 0.5 L 1126.5 1110.5 M 1142.5 0.5 L 1142.5 1110.5 M 1158.5 0.5 L 1158.5 1110.5 M 1175.5 0.5 L 1175.5 1110.5 M 1207.5 0.5 L 1207.5 1110.5 M 1223.5 0.5 L 1223.5 1110.5 M 1239.5 0.5 L 1239.5 1110.5 M 1256.5 0.5 L 1256.5 1110.5 M 1288.5 0.5 L 1288.5 1110.5 M 1304.5 0.5 L 1304.5 1110.5 M 1320.5 0.5 L 1320.5 1110.5 M 1337.5 0.5 L 1337.5 1110.5 M 1369.5 0.5 L 1369.5 1110.5 M 1385.5 0.5 L 1385.5 1110.5 M 1401.5 0.5 L 1401.5 1110.5 M 1418.5 0.5 L 1418.5 1110.5" stroke-opacity="0.23529411764705882" stroke-linecap="round" stroke-linejoin="round" stroke-miterlimit="10"/><path fill="none" stroke="rgb(192,192,192)" paint-order="fill stroke markers" d=" M 0.5 26.5 L 1431.5 26.5 M 0.5 26.5 L 1431.5 26.5 M 0.5 107.5 L 1431.5 107.5 M 0.5 188.5 L 1431.5 188.5 M 0.5 269.5 L 1431.5 269.5 M 0.5 350.5 L 1431.5 350.5 M 0.5 431.5 L 1431.5 431.5 M 0.5 512.5 L 1431.5 512.5 M 0.5 593.5 L 1431.5 593.5 M 0.5 674.5 L 1431.5 674.5 M 0.5 755.5 L 1431.5 755.5 M 0.5 836.5 L 1431.5 836.5 M 0.5 917.5 L 1431.5 917.5 M 0.5 998.5 L 1431.5 998.5 M 0.5 1079.5 L 1431.5 1079.5" stroke-opacity="1" stroke-linecap="round" stroke-linejoin="round" stroke-miterlimit="10"/><path fill="none" stroke="rgb(192,192,192)" paint-order="fill stroke markers" d=" M 0.5 10.5 L 1431.5 10.5 M 0.5 10.5 L 1431.5 10.5 M 0.5 42.5 L 1431.5 42.5 M 0.5 58.5 L 1431.5 58.5 M 0.5 74.5 L 1431.5 74.5 M 0.5 91.5 L 1431.5 91.5 M 0.5 123.5 L 1431.5 123.5 M 0.5 139.5 L 1431.5 139.5 M 0.5 155.5 L 1431.5 155.5 M 0.5 172.5 L 1431.5 172.5 M 0.5 204.5 L 1431.5 204.5 M 0.5 220.5 L 1431.5 220.5 M 0.5 236.5 L 1431.5 236.5 M 0.5 253.5 L 1431.5 253.5 M 0.5 285.5 L 1431.5 285.5 M 0.5 301.5 L 1431.5 301.5 M 0.5 317.5 L 1431.5 317.5 M 0.5 334.5 L 1431.5 334.5 M 0.5 366.5 L 1431.5 366.5 M 0.5 382.5 L 1431.5 382.5 M 0.5 398.5 L 1431.5 398.5 M 0.5 415.5 L 1431.5 415.5 M 0.5 447.5 L 1431.5 447.5 M 0.5 463.5 L 1431.5 463.5 M 0.5 479.5 L 1431.5 479.5 M 0.5 496.5 L 1431.5 496.5 M 0.5 528.5 L 1431.5 528.5 M 0.5 544.5 L 1431.5 544.5 M 0.5 560.5 L 1431.5 560.5 M 0.5 577.5 L 1431.5 577.5 M 0.5 609.5 L 1431.5 609.5 M 0.5 625.5 L 1431.5 625.5 M 0.5 641.5 L 1431.5 641.5 M 0.5 658.5 L 1431.5 658.5 M 0.5 690.5 L 1431.5 690.5 M 0.5 706.5 L 1431.5 706.5 M 0.5 722.5 L 1431.5 722.5 M 0.5 739.5 L 1431.5 739.5 M 0.5 771.5 L 1431.5 771.5 M 0.5 787.5 L 1431.5 787.5 M 0.5 803.5 L 1431.5 803.5 M 0.5 820.5 L 1431.5 820.5 M 0.5 852.5 L 1431.5 852.5 M 0.5 868.5 L 1431.5 868.5 M 0.5 885.5 L 1431.5 885.5 M 0.5 901.5 L 1431.5 901.5 M 0.5 933.5 L 1431.5 933.5 M 0.5 949.5 L 1431.5 949.5 M 0.5 966.5 L 1431.5 966.5 M 0.5 982.5 L 1431.5 982.5 M 0.5 1014.5 L 1431.5 1014.5 M 0.5 1030.5 L 1431.5 1030.5 M 0.5 1047.5 L 1431.5 1047.5 M 0.5 1063.5 L 1431.5 1063.5 M 0.5 1095.5 L 1431.5 1095.5" stroke-opacity="0.23529411764705882" stroke-linecap="round" stroke-linejoin="round" stroke-miterlimit="10"/><path fill="rgb(21,101,192)" stroke="none" paint-order="stroke fill markers" fill-rule="evenodd" d=" M 543.1996813681885 350.3011223000368 L 867.261702905312 350.3011223000368 L 867.261702905312 593.3476384528796 L 543.1996813681885 593.3476384528796 Z" fill-opacity="0.09803921568627451"/><path fill="none" stroke="rgb(21,101,192)" paint-order="fill stroke markers" d=" M 543.1996813681885 350.3011223000368 L 867.261702905312 350.3011223000368" stroke-opacity="0.6980392156862745" stroke-linecap="round" stroke-linejoin="round" stroke-miterlimit="10" stroke-width="2.5"/><path fill="none" stroke="rgb(21,101,192)" paint-order="fill stroke markers" d=" M 867.261702905312 350.3011223000368 L 867.261702905312 593.3476384528796" stroke-opacity="0.6980392156862745" stroke-linecap="round" stroke-linejoin="round" stroke-miterlimit="10" stroke-width="2.5"/><path fill="none" stroke="rgb(21,101,192)" paint-order="fill stroke markers" d=" M 867.261702905312 593.3476384528796 L 543.1996813681885 593.3476384528796" stroke-opacity="0.6980392156862745" stroke-linecap="round" stroke-linejoin="round" stroke-miterlimit="10" stroke-width="2.5"/><path fill="none" stroke="rgb(21,101,192)" paint-order="fill stroke markers" d=" M 543.1996813681885 593.3476384528796 L 543.1996813681885 350.3011223000368" stroke-opacity="0.6980392156862745" stroke-linecap="round" stroke-linejoin="round" stroke-miterlimit="10" stroke-width="2.5"/><path fill="rgb(255,0,0)" stroke="none" paint-order="stroke fill markers" d=" M 1000.8667110984244 478.25456671388247 L 1000.8755736889976 481.25455362293536 L 1000.8755736889785 481.25455362293536 L 443.0803736617345 482.90239764074107 C 442.39002073691705 482.90443708808175 441.83203241502736 483.4657320074345 441.83407186236803 484.15608493225193 C 441.8361075936062 484.84517995636 442.3953626008394 485.40239230447855 443.0839867398076 485.40239230447855 C 443.08524378094495 485.40239230447855 443.08650125316956 485.4023904477209 443.0877591538789 485.4023867316184 L 1000.882959181142 483.7545427138126 L 1000.8829591811422 483.7545427138126 L 1000.8918217717154 486.75452962286545 L 1017.8791922530359 482.45432682179205 L 1000.8667110984244 478.25456671388247 Z" fill-opacity="0.6980392156862745"/><path fill="rgb(0,255,0)" stroke="none" paint-order="stroke fill markers" d=" M 724.9629168961613 267.6490582267505 L 720.6065305203456 284.6221073854788 L 723.6064716834225 284.6408961610304 L 723.6064716834209 284.6408961610304 L 721.1658433649651 674.3278843411199 C 721.1615197173796 675.0182267389349 721.7176477952848 675.581364834629 722.4079901930999 675.5856884822144 C 722.4106569599609 675.5857051843034 722.4133218286182 675.5857135230626 722.4159847741918 675.5857135230626 C 723.1026750148174 675.5857135230625 723.6614873886979 675.0312172850337 723.6657943341944 674.3435416540797 L 726.1064226526502 284.6565534739901 L 726.1064226526486 284.6565534739901 L 729.1063638157254 284.6753422495417 L 724.9629168961613 267.6490582267505 Z" fill-opacity="0.6980392156862745"/><path fill="rgb(0,0,0)" stroke="none" paint-order="stroke fill markers" d=" M 952.4646360534997 344.13672666941255 L 952.4786684902392 347.1366938510196 L 543.1938345195471 349.05113597436724 C 542.5034861343827 349.0543650997065 541.9464659171797 349.61662076351394 541.9496950425189 350.30696914867826 C 541.952914851716 350.9953258540566 542.511940229279 351.55112259479364 543.1995563863331 351.55112259479364 C 543.201545923429 351.55112259479364 543.203536537044 351.5511179418485 543.20552821683 351.5511086257064 L 952.49036218751 349.63666650235876 L 952.4903621875221 349.63666650235876 L 952.5043946242616 352.6366336839657 L 969.4843293679871 348.30716303516533 L 952.4646360534997 344.13672666941255 Z" fill-opacity="0.6980392156862745"/><path fill="rgb(0,0,0)" stroke="none" paint-order="stroke fill markers" d=" M 543.19968775102 349.051122299292 C 543.1995884282853 349.051122299292 543.1994891028462 349.05112231087674 543.1993897747038 349.0511223340475 C 542.5090338561989 349.05128337668225 541.9495203595644 349.61105797501665 541.9496814021992 350.30141389352156 L 542.0159572692977 634.4121226343965 C 542.0159572692977 634.4121226344007 542.0159572692977 634.4121226344049 542.0159572692977 634.412122634409 L 542.0159572154311 634.412122634409 L 539.0159573509234 634.4128224587598 L 543.2699229066798 651.4118305783661 L 547.5159571196507 634.4108396230637 L 547.5159571191633 634.4108396230637 L 544.5159572015343 634.4115394474269 L 544.5159572012764 634.4115394474269 L 544.4496813341779 350.30083070655206 C 544.4495203147138 349.6105741161895 543.8899067619291 349.051122299292 543.19968775102 349.051122299292 Z" fill-opacity="0.6980392156862745"/><path fill="rgb(21,101,192)" stroke="none" paint-order="stroke fill markers" d=" M 777.5087470990163 419.62590833944785 C 777.5087470990163 422.3873320886018 775.2701708481703 424.62590833944785 772.5087470990163 424.62590833944785 C 769.7473233498623 424.62590833944785 767.5087470990163 422.3873320886018 767.5087470990163 419.62590833944785 C 767.5087470990163 416.8644845902939 769.7473233498623 414.62590833944785 772.5087470990163 414.62590833944785 C 775.2701708481703 414.62590833944785 777.5087470990163 416.8644845902939 777.5087470990163 419.62590833944785 Z" fill-opacity="1"/><path fill="none" stroke="rgb(0,0,0)" paint-order="fill stroke markers" d=" M 777.5087470990163 419.62590833944785 C 777.5087470990163 422.3873320886018 775.2701708481703 424.62590833944785 772.5087470990163 424.62590833944785 C 769.7473233498623 424.62590833944785 767.5087470990163 422.3873320886018 767.5087470990163 419.62590833944785 C 767.5087470990163 416.8644845902939 769.7473233498623 414.62590833944785 772.5087470990163 414.62590833944785 C 775.2701708481703 414.62590833944785 777.5087470990163 416.8644845902939 777.5087470990163 419.62590833944785 Z" stroke-opacity="1" stroke-linecap="round" stroke-linejoin="round" stroke-miterlimit="10"/><text fill="rgb(21,101,192)" stroke="none" font-family="geogebra-sans-serif, sans-serif" font-size="32px" font-style="normal" font-weight="normal" text-decoration="normal" x="777" y="410" text-anchor="start" dominant-baseline="alphabetic" fill-opacity="1">M</text><text fill="none" stroke="rgb(255,255,255)" font-family="geogebra-sans-serif, sans-serif" font-size="32px" font-style="normal" font-weight="normal" text-decoration="normal" x="777" y="410" text-anchor="start" dominant-baseline="alphabetic" stroke-opacity="1" stroke-linejoin="bevel" stroke-miterlimit="10" stroke-width="3">M</text><text fill="rgb(21,101,192)" stroke="none" font-family="geogebra-sans-serif, sans-serif" font-size="32px" font-style="normal" font-weight="normal" text-decoration="normal" x="777" y="410" text-anchor="start" dominant-baseline="alphabetic" fill-opacity="1">M</text><path fill="rgb(21,101,192)" stroke="none" paint-order="stroke fill markers" d=" M 728.6228846730406 481.6075365183535 C 728.6228846730406 484.3689602675075 726.3843084221946 486.6075365183535 723.6228846730406 486.6075365183535 C 720.8614609238866 486.6075365183535 718.6228846730406 484.3689602675075 718.6228846730406 481.6075365183535 C 718.6228846730406 478.8461127691996 720.8614609238866 476.6075365183535 723.6228846730406 476.6075365183535 C 726.3843084221946 476.6075365183535 728.6228846730406 478.8461127691996 728.6228846730406 481.6075365183535 Z" fill-opacity="1"/><path fill="none" stroke="rgb(0,0,0)" paint-order="fill stroke markers" d=" M 728.6228846730406 481.6075365183535 C 728.6228846730406 484.3689602675075 726.3843084221946 486.6075365183535 723.6228846730406 486.6075365183535 C 720.8614609238866 486.6075365183535 718.6228846730406 484.3689602675075 718.6228846730406 481.6075365183535 C 718.6228846730406 478.8461127691996 720.8614609238866 476.6075365183535 723.6228846730406 476.6075365183535 C 726.3843084221946 476.6075365183535 728.6228846730406 478.8461127691996 728.6228846730406 481.6075365183535 Z" stroke-opacity="1" stroke-linecap="round" stroke-linejoin="round" stroke-miterlimit="10"/><path fill="rgb(21,101,192)" stroke="none" paint-order="stroke fill markers" d=" M 548.1996813681885 350.3011223000368 C 548.1996813681885 353.06254604919076 545.9611051173425 355.3011223000368 543.1996813681885 355.3011223000368 C 540.4382576190345 355.3011223000368 538.1996813681885 353.06254604919076 538.1996813681885 350.3011223000368 C 538.1996813681885 347.53969855088286 540.4382576190345 345.3011223000368 543.1996813681885 345.3011223000368 C 545.9611051173425 345.3011223000368 548.1996813681885 347.53969855088286 548.1996813681885 350.3011223000368 Z" fill-opacity="1"/><path fill="none" stroke="rgb(0,0,0)" paint-order="fill stroke markers" d=" M 548.1996813681885 350.3011223000368 C 548.1996813681885 353.06254604919076 545.9611051173425 355.3011223000368 543.1996813681885 355.3011223000368 C 540.4382576190345 355.3011223000368 538.1996813681885 353.06254604919076 538.1996813681885 350.3011223000368 C 538.1996813681885 347.53969855088286 540.4382576190345 345.3011223000368 543.1996813681885 345.3011223000368 C 545.9611051173425 345.3011223000368 548.1996813681885 347.53969855088286 548.1996813681885 350.3011223000368 Z" stroke-opacity="1" stroke-linecap="round" stroke-linejoin="round" stroke-miterlimit="10"/><text fill="rgb(21,101,192)" stroke="none" font-family="geogebra-sans-serif, sans-serif" font-size="32px" font-style="normal" font-weight="normal" text-decoration="normal" x="547" y="340" text-anchor="start" dominant-baseline="alphabetic" fill-opacity="1">I</text><text fill="none" stroke="rgb(255,255,255)" font-family="geogebra-sans-serif, sans-serif" font-size="32px" font-style="normal" font-weight="normal" text-decoration="normal" x="547" y="340" text-anchor="start" dominant-baseline="alphabetic" stroke-opacity="1" stroke-linejoin="bevel" stroke-miterlimit="10" stroke-width="3">I</text><text fill="rgb(21,101,192)" stroke="none" font-family="geogebra-sans-serif, sans-serif" font-size="32px" font-style="normal" font-weight="normal" text-decoration="normal" x="547" y="340" text-anchor="start" dominant-baseline="alphabetic" fill-opacity="1">I</text><text fill="rgb(0,0,0)" stroke="none" font-family="geogebra-sans-serif, sans-serif" font-size="32px" font-style="italic" font-weight="normal" text-decoration="normal" x="1025" y="493" text-anchor="start" dominant-baseline="alphabetic" fill-opacity="1">x</text><text fill="rgb(0,0,0)" stroke="none" font-family="geogebra-sans-serif, sans-serif" font-size="32px" font-style="italic" font-weight="normal" text-decoration="normal" x="737" y="290" text-anchor="start" dominant-baseline="alphabetic" fill-opacity="1">y</text><text fill="rgb(0,0,0)" stroke="none" font-family="geogebra-sans-serif, sans-serif" font-size="32px" font-style="italic" font-weight="normal" text-decoration="normal" x="976" y="355" text-anchor="start" dominant-baseline="alphabetic" fill-opacity="1">u</text><text fill="rgb(0,0,0)" stroke="none" font-family="geogebra-sans-serif, sans-serif" font-size="32px" font-style="italic" font-weight="normal" text-decoration="normal" x="505" y="649" text-anchor="start" dominant-baseline="alphabetic" fill-opacity="1">v</text><g transform="scale(35,35)"><g transform="translate(20.685714285714287,14.751142857142856)"><path fill="rgb(0,0,0)" stroke="none" paint-order="stroke fill markers" d=" M 0.762 -0.436 Q 0.762 -0.319 0.7035 -0.212 Q 0.645 -0.105 0.5525 -0.0415 Q 0.46 0.022 0.363 0.022 Q 0.254 0.022 0.1865 -0.0565 Q 0.11900000000000001 -0.135 0.11900000000000001 -0.255 Q 0.11900000000000001 -0.367 0.176 -0.47450000000000003 Q 0.233 -0.582 0.3265 -0.649 Q 0.42 -0.716 0.52 -0.716 Q 0.624 -0.716 0.6930000000000001 -0.6395000000000001 Q 0.762 -0.5630000000000001 0.762 -0.436 M 0.377 -0.043000000000000003 Q 0.453 -0.043000000000000003 0.5235 -0.10400000000000001 Q 0.594 -0.165 0.635 -0.258 Q 0.676 -0.35100000000000003 0.676 -0.444 Q 0.676 -0.539 0.628 -0.5955 Q 0.58 -0.652 0.506 -0.652 Q 0.394 -0.652 0.3025 -0.537 Q 0.211 -0.422 0.211 -0.263 Q 0.211 -0.158 0.259 -0.1005 Q 0.307 -0.043000000000000003 0.377 -0.043000000000000003 Z"/></g><g transform="translate(21.421714285714287,14.901142857142856) scale(0.7,0.7)"><path fill="rgb(0,0,0)" stroke="none" paint-order="stroke fill markers" d=" M 0.47700000000000004 -0.23600000000000002 L 0.47700000000000004 -0.23600000000000002 L 0.47700000000000004 -0.17400000000000002 Q 0.542 -0.255 0.5750000000000001 -0.372 Q 0.585 -0.392 0.59 -0.393 Q 0.602 -0.393 0.602 -0.383 Q 0.602 -0.366 0.579 -0.307 Q 0.545 -0.221 0.487 -0.148 Q 0.47700000000000004 -0.128 0.47700000000000004 -0.113 Q 0.47700000000000004 -0.011 0.508 -0.011 Q 0.539 -0.011 0.558 -0.046 Q 0.561 -0.052000000000000005 0.5640000000000001 -0.06 Q 0.5680000000000001 -0.07 0.577 -0.07 Q 0.589 -0.07 0.589 -0.06 Q 0.589 -0.041 0.5640000000000001 -0.015 Q 0.538 0.011 0.505 0.011 Q 0.442 0.011 0.418 -0.058 Q 0.41600000000000004 -0.065 0.41400000000000003 -0.073 Q 0.309 0.011 0.203 0.011 Q 0.109 0.011 0.065 -0.064 Q 0.041 -0.105 0.041 -0.158 Q 0.041 -0.26 0.11900000000000001 -0.34700000000000003 Q 0.196 -0.433 0.293 -0.441 Q 0.302 -0.442 0.31 -0.442 Q 0.394 -0.442 0.44 -0.376 Q 0.44 -0.375 0.441 -0.375 Q 0.47700000000000004 -0.322 0.47700000000000004 -0.23600000000000002 M 0.41000000000000003 -0.099 L 0.41000000000000003 -0.099 Q 0.40800000000000003 -0.116 0.40800000000000003 -0.211 Q 0.40800000000000003 -0.334 0.381 -0.379 Q 0.369 -0.399 0.352 -0.40900000000000003 L 0.35100000000000003 -0.41000000000000003 L 0.35100000000000003 -0.41000000000000003 L 0.35000000000000003 -0.41000000000000003 Q 0.332 -0.42 0.309 -0.42 Q 0.23800000000000002 -0.42 0.181 -0.34 L 0.17300000000000001 -0.328 Q 0.137 -0.27 0.12 -0.166 Q 0.115 -0.138 0.115 -0.12 Q 0.115 -0.036000000000000004 0.17400000000000002 -0.016 Q 0.188 -0.011 0.20500000000000002 -0.011 Q 0.309 -0.011 0.41000000000000003 -0.099 Z"/></g></g></g></g></svg>