<svg version="1.1" xmlns="http://www.w3.org/2000/svg" xmlns:xlink="http://www.w3.org/1999/xlink" width="686" height="459"><defs><clipPath id="PufTdiQcmGhP"><path fill="none" stroke="none" d=" M 0 0 L 686 0 L 686 459 L 0 459 L 0 0 Z"/></clipPath></defs><g transform="scale(1,1)" clip-path="url(#PufTdiQcmGhP)"><g transform="translate(-382,-243)"><rect fill="rgb(255,255,255)" stroke="none" x="0" y="0" width="1431" height="1110" fill-opacity="1"/><path fill="none" stroke="rgb(192,192,192)" paint-order="fill stroke markers" d=" M 57.5 0.5 L 57.5 1110.5 M 57.5 0.5 L 57.5 1110.5 M 138.5 0.5 L 138.5 1110.5 M 219.5 0.5 L 219.5 1110.5 M 300.5 0.5 L 300.5 1110.5 M 381.5 0.5 L 381.5 1110.5 M 462.5 0.5 L 462.5 1110.5 M 543.5 0.5 L 543.5 1110.5 M 624.5 0.5 L 624.5 1110.5 M 705.5 0.5 L 705.5 1110.5 M 786.5 0.5 L 786.5 1110.5 M 867.5 0.5 L 867.5 1110.5 M 948.5 0.5 L 948.5 1110.5 M 1029.5 0.5 L 1029.5 1110.5 M 1110.5 0.5 L 1110.5 1110.5 M 1191.5 0.5 L 1191.5 1110.5 M 1272.5 0.5 L 1272.5 1110.5 M 1353.5 0.5 L 1353.5 1110.5" stroke-opacity="1" stroke-linecap="round" stroke-linejoin="round" stroke-miterlimit="10"/><path fill="none" stroke="rgb(192,192,192)" paint-order="fill stroke markers" d=" M 8.5 0.5 L 8.5 1110.5 M 24.5 0.5 L 24.5 1110.5 M 40.5 0.5 L 40.5 1110.5 M 73.5 0.5 L 73.5 1110.5 M 89.5 0.5 L 89.5 1110.5 M 105.5 0.5 L 105.5 1110.5 M 121.5 0.5 L 121.5 1110.5 M 154.5 0.5 L 154.5 1110.5 M 170.5 0.5 L 170.5 1110.5 M 186.5 0.5 L 186.5 1110.5 M 202.5 0.5 L 202.5 1110.5 M 235.5 0.5 L 235.5 1110.5 M 251.5 0.5 L 251.5 1110.5 M 267.5 0.5 L 267.5 1110.5 M 283.5 0.5 L 283.5 1110.5 M 316.5 0.5 L 316.5 1110.5 M 332.5 0.5 L 332.5 1110.5 M 348.5 0.5 L 348.5 1110.5 M 364.5 0.5 L 364.5 1110.5 M 397.5 0.5 L 397.5 1110.5 M 413.5 0.5 L 413.5 1110.5 M 429.5 0.5 L 429.5 1110.5 M 445.5 0.5 L 445.5 1110.5 M 478.5 0.5 L 478.5 1110.5 M 494.5 0.5 L 494.5 1110.5 M 510.5 0.5 L 510.5 1110.5 M 526.5 0.5 L 526.5 1110.5 M 559.5 0.5 L 559.5 1110.5 M 575.5 0.5 L 575.5 1110.5 M 591.5 0.5 L 591.5 1110.5 M 608.5 0.5 L 608.5 1110.5 M 640.5 0.5 L 640.5 1110.5 M 656.5 0.5 L 656.5 1110.5 M 672.5 0.5 L 672.5 1110.5 M 689.5 0.5 L 689.5 1110.5 M 721.5 0.5 L 721.5 1110.5 M 737.5 0.5 L 737.5 1110.5 M 753.5 0.5 L 753.5 1110.5 M 770.5 0.5 L 770.5 1110.5 M 802.5 0.5 L 802.5 1110.5 M 818.5 0.5 L 818.5 1110.5 M 834.5 0.5 L 834.5 1110.5 M 851.5 0.5 L 851.5 1110.5 M 883.5 0.5 L 883.5 1110.5 M 899.5 0.5 L 899.5 1110.5 M 915.5 0.5 L 915.5 1110.5 M 932.5 0.5 L 932.5 1110.5 M 964.5 0.5 L 964.5 1110.5 M 980.5 0.5 L 980.5 1110.5 M 996.5 0.5 L 996.5 1110.5 M 1013.5 0.5 L 1013.5 1110.5 M 1045.5 0.5 L 1045.5 1110.5 M 1061.5 0.5 L 1061.5 1110.5 M 1077.5 0.5 L 1077.5 1110.5 M 1094.5 0.5 L 1094.5 1110.5 M 1126.5 0.5 L 1126.5 1110.5 M 1142.5 0.5 L 1142.5 1110.5 M 1158.5 0.5 L 1158.5 1110.5 M 1175.5 0.5 L 1175.5 1110.5 M 1207.5 0.5 L 1207.5 1110.5 M 1223.5 0.5 L 1223.5 1110.5 M 1239.5 0.5 L 1239.5 1110.5 M 1256.5 0.5 L 1256.5 1110.5 M 1288.5 0.5 L 1288.5 1110.5 M 1304.5 0.5 L 1304.5 1110.5 M 1320.5 0.5 L 1320.5 1110.5 M 1337.5 0.5 L 1337.5 1110.5 M 1369.5 0.5 L 1369.5 1110.5 M 1385.5 0.5 L 1385.5 1110.5 M 1401.5 0.5 L 1401.5 1110.5 M 1418.5 0.5 L 1418.5 1110.5" stroke-opacity="0.23529411764705882" stroke-linecap="round" stroke-linejoin="round" stroke-miterlimit="10"/><path fill="none" stroke="rgb(192,192,192)" paint-order="fill stroke markers" d=" M 0.5 26.5 L 1431.5 26.5 M 0.5 26.5 L 1431.5 26.5 M 0.5 107.5 L 1431.5 107.5 M 0.5 188.5 L 1431.5 188.5 M 0.5 269.5 L 1431.5 269.5 M 0.5 350.5 L 1431.5 350.5 M 0.5 431.5 L 1431.5 431.5 M 0.5 512.5 L 1431.5 512.5 M 0.5 593.5 L 1431.5 593.5 M 0.5 674.5 L 1431.5 674.5 M 0.5 755.5 L 1431.5 755.5 M 0.5 836.5 L 1431.5 836.5 M 0.5 917.5 L 1431.5 917.5 M 0.5 998.5 L 1431.5 998.5 M 0.5 1079.5 L 1431.5 1079.5" stroke-opacity="1" stroke-linecap="round" stroke-linejoin="round" stroke-miterlimit="10"/><path fill="none" stroke="rgb(192,192,192)" paint-order="fill stroke markers" d=" M 0.5 10.5 L 1431.5 10.5 M 0.5 10.5 L 1431.5 10.5 M 0.5 42.5 L 1431.5 42.5 M 0.5 58.5 L 1431.5 58.5 M 0.5 74.5 L 1431.5 74.5 M 0.5 91.5 L 1431.5 91.5 M 0.5 123.5 L 1431.5 123.5 M 0.5 139.5 L 1431.5 139.5 M 0.5 155.5 L 1431.5 155.5 M 0.5 172.5 L 1431.5 172.5 M 0.5 204.5 L 1431.5 204.5 M 0.5 220.5 L 1431.5 220.5 M 0.5 236.5 L 1431.5 236.5 M 0.5 253.5 L 1431.5 253.5 M 0.5 285.5 L 1431.5 285.5 M 0.5 301.5 L 1431.5 301.5 M 0.5 317.5 L 1431.5 317.5 M 0.5 334.5 L 1431.5 334.5 M 0.5 366.5 L 1431.5 366.5 M 0.5 382.5 L 1431.5 382.5 M 0.5 398.5 L 1431.5 398.5 M 0.5 415.5 L 1431.5 415.5 M 0.5 447.5 L 1431.5 447.5 M 0.5 463.5 L 1431.5 463.5 M 0.5 479.5 L 1431.5 479.5 M 0.5 496.5 L 1431.5 496.5 M 0.5 528.5 L 1431.5 528.5 M 0.5 544.5 L 1431.5 544.5 M 0.5 560.5 L 1431.5 560.5 M 0.5 577.5 L 1431.5 577.5 M 0.5 609.5 L 1431.5 609.5 M 0.5 625.5 L 1431.5 625.5 M 0.5 641.5 L 1431.5 641.5 M 0.5 658.5 L 1431.5 658.5 M 0.5 690.5 L 1431.5 690.5 M 0.5 706.5 L 1431.5 706.5 M 0.5 722.5 L 1431.5 722.5 M 0.5 739.5 L 1431.5 739.5 M 0.5 771.5 L 1431.5 771.5 M 0.5 787.5 L 1431.5 787.5 M 0.5 803.5 L 1431.5 803.5 M 0.5 820.5 L 1431.5 820.5 M 0.5 852.5 L 1431.5 852.5 M 0.5 868.5 L 1431.5 868.5 M 0.5 885.5 L 1431.5 885.5 M 0.5 901.5 L 1431.5 901.5 M 0.5 933.5 L 1431.5 933.5 M 0.5 949.5 L 1431.5 949.5 M 0.5 966.5 L 1431.5 966.5 M 0.5 982.5 L 1431.5 982.5 M 0.5 1014.5 L 1431.5 1014.5 M 0.5 1030.5 L 1431.5 1030.5 M 0.5 1047.5 L 1431.5 1047.5 M 0.5 1063.5 L 1431.5 1063.5 M 0.5 1095.5 L 1431.5 1095.5" stroke-opacity="0.23529411764705882" stroke-linecap="round" stroke-linejoin="round" stroke-miterlimit="10"/><path fill="rgb(21,101,192)" stroke="none" paint-order="stroke fill markers" fill-rule="evenodd" d=" M 543.1996813681885 350.3011223000368 L 867.261702905312 350.3011223000368 L 867.261702905312 593.3476384528796 L 543.1996813681885 593.3476384528796 Z" fill-opacity="0.09803921568627451"/><path fill="none" stroke="rgb(21,101,192)" paint-order="fill stroke markers" d=" M 543.1996813681885 350.3011223000368 L 867.261702905312 350.3011223000368" stroke-opacity="0.6980392156862745" stroke-linecap="round" stroke-linejoin="round" stroke-miterlimit="10" stroke-width="2.5"/><path fill="none" stroke="rgb(21,101,192)" paint-order="fill stroke markers" d=" M 867.261702905312 350.3011223000368 L 867.261702905312 593.3476384528796" stroke-opacity="0.6980392156862745" stroke-linecap="round" stroke-linejoin="round" stroke-miterlimit="10" stroke-width="2.5"/><path fill="none" stroke="rgb(21,101,192)" paint-order="fill stroke markers" d=" M 867.261702905312 593.3476384528796 L 543.1996813681885 593.3476384528796" stroke-opacity="0.6980392156862745" stroke-linecap="round" stroke-linejoin="round" stroke-miterlimit="10" stroke-width="2.5"/><path fill="none" stroke="rgb(21,101,192)" paint-order="fill stroke markers" d=" M 543.1996813681885 593.3476384528796 L 543.1996813681885 350.3011223000368" stroke-opacity="0.6980392156862745" stroke-linecap="round" stroke-linejoin="round" stroke-miterlimit="10" stroke-width="2.5"/><path fill="rgb(255,0,0)" stroke="none" paint-order="stroke fill markers" d=" M 1000.8667110984244 478.25456671388247 L 1000.8755736889976 481.25455362293536 L 1000.8755736889785 481.25455362293536 L 443.0803736617345 482.90239764074107 C 442.39002073691705 482.90443708808175 441.83203241502736 483.4657320074345 441.83407186236803 484.15608493225193 C 441.8361075936062 484.84517995636 442.3953626008394 485.40239230447855 443.0839867398076 485.40239230447855 C 443.08524378094495 485.40239230447855 443.08650125316956 485.4023904477209 443.0877591538789 485.4023867316184 L 1000.882959181142 483.7545427138126 L 1000.8829591811422 483.7545427138126 L 1000.8918217717154 486.75452962286545 L 1017.8791922530359 482.45432682179205 L 1000.8667110984244 478.25456671388247 Z" fill-opacity="0.6980392156862745"/><path fill="rgb(0,255,0)" stroke="none" paint-order="stroke fill markers" d=" M 724.9629168961613 267.6490582267505 L 720.6065305203456 284.6221073854788 L 723.6064716834225 284.6408961610304 L 723.6064716834209 284.6408961610304 L 721.1658433649651 674.3278843411199 C 721.1615197173796 675.0182267389349 721.7176477952848 675.581364834629 722.4079901930999 675.5856884822144 C 722.4106569599609 675.5857051843034 722.4133218286182 675.5857135230626 722.4159847741918 675.5857135230626 C 723.1026750148174 675.5857135230625 723.6614873886979 675.0312172850337 723.6657943341944 674.3435416540797 L 726.1064226526502 284.6565534739901 L 726.1064226526486 284.6565534739901 L 729.1063638157254 284.6753422495417 L 724.9629168961613 267.6490582267505 Z" fill-opacity="0.6980392156862745"/><path fill="rgb(0,0,0)" stroke="none" paint-order="stroke fill markers" d=" M 457.01332041896325 587.8036410637687 L 440 592 L 456.9865104573117 596.3035987828375 L 456.9959727967181 593.3036137055191 L 867.2577602638926 594.5976322350955 C 867.2591032895672 594.5976364711714 867.2604458272249 594.5976385876354 867.2617878736977 594.5976385876354 C 867.9502949935866 594.5976385876354 868.5095234628739 594.0405905719255 868.5116966875279 593.3515810942989 C 868.5138741482579 592.6612285909978 867.9559980500325 592.0998221313936 867.2656455467313 592.0976446706636 L 457.00385807955684 590.8036261410872 L 457.01332041896325 587.8036410637687 Z" fill-opacity="0.6980392156862745"/><path fill="rgb(0,0,0)" stroke="none" paint-order="stroke fill markers" d=" M 868 295 L 863.7079445981956 311.9894308447293 L 866.7079354126132 311.9968546826181 L 866.7079354126199 311.9968546826181 L 866.011706732635 593.3445451870925 C 866.0099983691138 594.0348990106088 866.5682558160087 594.5959262620352 867.2586096395249 594.5976346255565 C 867.2596633319038 594.5976372330449 867.2607167230015 594.5976385360284 867.261769811289 594.5976385360284 C 867.950674760507 594.5976385360284 868.509993321956 594.040031849804 868.5116990779889 593.3507317186666 L 869.2079277579737 312.00304121419214 L 869.2079277579804 312.00304121419214 L 872.2079185723981 312.0104650520809 L 868 295 Z" fill-opacity="0.6980392156862745"/><path fill="rgb(21,101,192)" stroke="none" paint-order="stroke fill markers" d=" M 777.5087470990163 419.62590833944785 C 777.5087470990163 422.3873320886018 775.2701708481703 424.62590833944785 772.5087470990163 424.62590833944785 C 769.7473233498623 424.62590833944785 767.5087470990163 422.3873320886018 767.5087470990163 419.62590833944785 C 767.5087470990163 416.8644845902939 769.7473233498623 414.62590833944785 772.5087470990163 414.62590833944785 C 775.2701708481703 414.62590833944785 777.5087470990163 416.8644845902939 777.5087470990163 419.62590833944785 Z" fill-opacity="1"/><path fill="none" stroke="rgb(0,0,0)" paint-order="fill stroke markers" d=" M 777.5087470990163 419.62590833944785 C 777.5087470990163 422.3873320886018 775.2701708481703 424.62590833944785 772.5087470990163 424.62590833944785 C 769.7473233498623 424.62590833944785 767.5087470990163 422.3873320886018 767.5087470990163 419.62590833944785 C 767.5087470990163 416.8644845902939 769.7473233498623 414.62590833944785 772.5087470990163 414.62590833944785 C 775.2701708481703 414.62590833944785 777.5087470990163 416.8644845902939 777.5087470990163 419.62590833944785 Z" stroke-opacity="1" stroke-linecap="round" stroke-linejoin="round" stroke-miterlimit="10"/><text fill="rgb(21,101,192)" stroke="none" font-family="geogebra-sans-serif, sans-serif" font-size="32px" font-style="normal" font-weight="normal" text-decoration="normal" x="777" y="410" text-anchor="start" dominant-baseline="alphabetic" fill-opacity="1">M</text><text fill="none" stroke="rgb(255,255,255)" font-family="geogebra-sans-serif, sans-serif" font-size="32px" font-style="normal" font-weight="normal" text-decoration="normal" x="777" y="410" text-anchor="start" dominant-baseline="alphabetic" stroke-opacity="1" stroke-linejoin="bevel" stroke-miterlimit="10" stroke-width="3">M</text><text fill="rgb(21,101,192)" stroke="none" font-family="geogebra-sans-serif, sans-serif" font-size="32px" font-style="normal" font-weight="normal" text-decoration="normal" x="777" y="410" text-anchor="start" dominant-baseline="alphabetic" fill-opacity="1">M</text><path fill="rgb(21,101,192)" stroke="none" paint-order="stroke fill markers" d=" M 728.6228846730406 481.6075365183535 C 728.6228846730406 484.3689602675075 726.3843084221946 486.6075365183535 723.6228846730406 486.6075365183535 C 720.8614609238866 486.6075365183535 718.6228846730406 484.3689602675075 718.6228846730406 481.6075365183535 C 718.6228846730406 478.8461127691996 720.8614609238866 476.6075365183535 723.6228846730406 476.6075365183535 C 726.3843084221946 476.6075365183535 728.6228846730406 478.8461127691996 728.6228846730406 481.6075365183535 Z" fill-opacity="1"/><path fill="none" stroke="rgb(0,0,0)" paint-order="fill stroke markers" d=" M 728.6228846730406 481.6075365183535 C 728.6228846730406 484.3689602675075 726.3843084221946 486.6075365183535 723.6228846730406 486.6075365183535 C 720.8614609238866 486.6075365183535 718.6228846730406 484.3689602675075 718.6228846730406 481.6075365183535 C 718.6228846730406 478.8461127691996 720.8614609238866 476.6075365183535 723.6228846730406 476.6075365183535 C 726.3843084221946 476.6075365183535 728.6228846730406 478.8461127691996 728.6228846730406 481.6075365183535 Z" stroke-opacity="1" stroke-linecap="round" stroke-linejoin="round" stroke-miterlimit="10"/><path fill="rgb(21,101,192)" stroke="none" paint-order="stroke fill markers" d=" M 872.261702905312 593.3476384528796 C 872.261702905312 596.1090622020336 870.023126654466 598.3476384528796 867.261702905312 598.3476384528796 C 864.500279156158 598.3476384528796 862.261702905312 596.1090622020336 862.261702905312 593.3476384528796 C 862.261702905312 590.5862147037255 864.500279156158 588.3476384528796 867.261702905312 588.3476384528796 C 870.023126654466 588.3476384528796 872.261702905312 590.5862147037255 872.261702905312 593.3476384528796 Z" fill-opacity="1"/><path fill="none" stroke="rgb(0,0,0)" paint-order="fill stroke markers" d=" M 872.261702905312 593.3476384528796 C 872.261702905312 596.1090622020336 870.023126654466 598.3476384528796 867.261702905312 598.3476384528796 C 864.500279156158 598.3476384528796 862.261702905312 596.1090622020336 862.261702905312 593.3476384528796 C 862.261702905312 590.5862147037255 864.500279156158 588.3476384528796 867.261702905312 588.3476384528796 C 870.023126654466 588.3476384528796 872.261702905312 590.5862147037255 872.261702905312 593.3476384528796 Z" stroke-opacity="1" stroke-linecap="round" stroke-linejoin="round" stroke-miterlimit="10"/><text fill="rgb(21,101,192)" stroke="none" font-family="geogebra-sans-serif, sans-serif" font-size="32px" font-style="normal" font-weight="normal" text-decoration="normal" x="871" y="583" text-anchor="start" dominant-baseline="alphabetic" fill-opacity="1">I</text><text fill="none" stroke="rgb(255,255,255)" font-family="geogebra-sans-serif, sans-serif" font-size="32px" font-style="normal" font-weight="normal" text-decoration="normal" x="871" y="583" text-anchor="start" dominant-baseline="alphabetic" stroke-opacity="1" stroke-linejoin="bevel" stroke-miterlimit="10" stroke-width="3">I</text><text fill="rgb(21,101,192)" stroke="none" font-family="geogebra-sans-serif, sans-serif" font-size="32px" font-style="normal" font-weight="normal" text-decoration="normal" x="871" y="583" text-anchor="start" dominant-baseline="alphabetic" fill-opacity="1">I</text><text fill="rgb(0,0,0)" stroke="none" font-family="geogebra-sans-serif, sans-serif" font-size="32px" font-style="italic" font-weight="normal" text-decoration="normal" x="1025" y="493" text-anchor="start" dominant-baseline="alphabetic" fill-opacity="1">x</text><text fill="rgb(0,0,0)" stroke="none" font-family="geogebra-sans-serif, sans-serif" font-size="32px" font-style="italic" font-weight="normal" text-decoration="normal" x="737" y="290" text-anchor="start" dominant-baseline="alphabetic" fill-opacity="1">y</text><text fill="rgb(0,0,0)" stroke="none" font-family="geogebra-sans-serif, sans-serif" font-size="32px" font-style="italic" font-weight="normal" text-decoration="normal" x="459" y="583" text-anchor="start" dominant-baseline="alphabetic" fill-opacity="1">u</text><text fill="rgb(0,0,0)" stroke="none" font-family="geogebra-sans-serif, sans-serif" font-size="32px" font-style="italic" font-weight="normal" text-decoration="normal" x="884" y="321" text-anchor="start" dominant-baseline="alphabetic" fill-opacity="1">v</text><g transform="scale(35,35)"><g transform="translate(20.685714285714287,14.722571428571428)"><path fill="rgb(0,0,0)" stroke="none" paint-order="stroke fill markers" d=" M 0.762 -0.436 Q 0.762 -0.319 0.7035 -0.212 Q 0.645 -0.105 0.5525 -0.0415 Q 0.46 0.022 0.363 0.022 Q 0.254 0.022 0.1865 -0.0565 Q 0.11900000000000001 -0.135 0.11900000000000001 -0.255 Q 0.11900000000000001 -0.367 0.176 -0.47450000000000003 Q 0.233 -0.582 0.3265 -0.649 Q 0.42 -0.716 0.52 -0.716 Q 0.624 -0.716 0.6930000000000001 -0.6395000000000001 Q 0.762 -0.5630000000000001 0.762 -0.436 M 0.377 -0.043000000000000003 Q 0.453 -0.043000000000000003 0.5235 -0.10400000000000001 Q 0.594 -0.165 0.635 -0.258 Q 0.676 -0.35100000000000003 0.676 -0.444 Q 0.676 -0.539 0.628 -0.5955 Q 0.58 -0.652 0.506 -0.652 Q 0.394 -0.652 0.3025 -0.537 Q 0.211 -0.422 0.211 -0.263 Q 0.211 -0.158 0.259 -0.1005 Q 0.307 -0.043000000000000003 0.377 -0.043000000000000003 Z"/></g><g transform="translate(21.421714285714287,14.872571428571428) scale(0.7,0.7)"><path fill="rgb(0,0,0)" stroke="none" paint-order="stroke fill markers" d=" M 0.028 0.169 L 0.18 -0.437 Q 0.209 -0.551 0.292 -0.631 Q 0.37 -0.705 0.456 -0.705 Q 0.539 -0.705 0.5750000000000001 -0.639 Q 0.59 -0.611 0.59 -0.577 Q 0.59 -0.502 0.528 -0.439 Q 0.507 -0.418 0.482 -0.403 Q 0.549 -0.357 0.549 -0.264 Q 0.549 -0.161 0.46900000000000003 -0.076 Q 0.392 0.005 0.296 0.012 L 0.28300000000000003 0.012 Q 0.186 0.012 0.14100000000000001 -0.063 Q 0.129 -0.083 0.123 -0.105 L 0.048 0.188 L 0.047 0.19 Q 0.043000000000000003 0.194 0.037 0.194 Q 0.025 0.194 0.025 0.184 Q 0.025 0.181 0.028 0.169 M 0.328 -0.401 Q 0.34500000000000003 -0.395 0.371 -0.395 Q 0.401 -0.395 0.419 -0.403 Q 0.406 -0.40900000000000003 0.379 -0.40900000000000003 Q 0.34400000000000003 -0.40900000000000003 0.328 -0.401 M 0.45 -0.421 Q 0.511 -0.467 0.525 -0.577 L 0.525 -0.578 L 0.525 -0.58 Q 0.527 -0.594 0.527 -0.602 Q 0.527 -0.673 0.46900000000000003 -0.682 Q 0.462 -0.683 0.455 -0.683 Q 0.372 -0.683 0.299 -0.606 Q 0.23 -0.534 0.2 -0.41600000000000004 L 0.154 -0.231 Q 0.14100000000000001 -0.179 0.14100000000000001 -0.156 Q 0.14100000000000001 -0.074 0.2 -0.034 Q 0.234 -0.01 0.281 -0.01 Q 0.359 -0.01 0.41500000000000004 -0.094 Q 0.422 -0.10300000000000001 0.427 -0.113 Q 0.462 -0.179 0.47400000000000003 -0.274 Q 0.47600000000000003 -0.291 0.47600000000000003 -0.302 Q 0.47600000000000003 -0.355 0.446 -0.386 Q 0.41400000000000003 -0.373 0.371 -0.373 Q 0.303 -0.373 0.303 -0.399 Q 0.303 -0.431 0.381 -0.431 Q 0.422 -0.431 0.45 -0.421 Z"/></g></g></g></g></svg>