<svg version="1.1" xmlns="http://www.w3.org/2000/svg" xmlns:xlink="http://www.w3.org/1999/xlink" width="788" height="721"><defs><clipPath id="uKdOBRbkkIrf"><path fill="none" stroke="none" d=" M 0 0 L 788 0 L 788 721 L 0 721 L 0 0 Z"/></clipPath></defs><g transform="scale(1,1)" clip-path="url(#uKdOBRbkkIrf)"><g transform="translate(-342.00000000000006,-109)"><rect fill="rgb(255,255,255)" stroke="none" x="0" y="0" width="1431" height="1149" fill-opacity="1"/><path fill="none" stroke="rgb(192,192,192)" paint-order="fill stroke markers" d=" M 56.5 0.5 L 56.5 1149.5 M 56.5 0.5 L 56.5 1149.5 M 151.5 0.5 L 151.5 1149.5 M 246.5 0.5 L 246.5 1149.5 M 342.5 0.5 L 342.5 1149.5 M 437.5 0.5 L 437.5 1149.5 M 533.5 0.5 L 533.5 1149.5 M 628.5 0.5 L 628.5 1149.5 M 724.5 0.5 L 724.5 1149.5 M 819.5 0.5 L 819.5 1149.5 M 914.5 0.5 L 914.5 1149.5 M 1010.5 0.5 L 1010.5 1149.5 M 1105.5 0.5 L 1105.5 1149.5 M 1201.5 0.5 L 1201.5 1149.5 M 1296.5 0.5 L 1296.5 1149.5 M 1391.5 0.5 L 1391.5 1149.5" stroke-opacity="1" stroke-linecap="round" stroke-linejoin="round" stroke-miterlimit="10"/><path fill="none" stroke="rgb(192,192,192)" paint-order="fill stroke markers" d=" M 17.5 0.5 L 17.5 1149.5 M 36.5 0.5 L 36.5 1149.5 M 75.5 0.5 L 75.5 1149.5 M 94.5 0.5 L 94.5 1149.5 M 113.5 0.5 L 113.5 1149.5 M 132.5 0.5 L 132.5 1149.5 M 170.5 0.5 L 170.5 1149.5 M 189.5 0.5 L 189.5 1149.5 M 208.5 0.5 L 208.5 1149.5 M 227.5 0.5 L 227.5 1149.5 M 266.5 0.5 L 266.5 1149.5 M 285.5 0.5 L 285.5 1149.5 M 304.5 0.5 L 304.5 1149.5 M 323.5 0.5 L 323.5 1149.5 M 361.5 0.5 L 361.5 1149.5 M 380.5 0.5 L 380.5 1149.5 M 399.5 0.5 L 399.5 1149.5 M 418.5 0.5 L 418.5 1149.5 M 456.5 0.5 L 456.5 1149.5 M 475.5 0.5 L 475.5 1149.5 M 495.5 0.5 L 495.5 1149.5 M 514.5 0.5 L 514.5 1149.5 M 552.5 0.5 L 552.5 1149.5 M 571.5 0.5 L 571.5 1149.5 M 590.5 0.5 L 590.5 1149.5 M 609.5 0.5 L 609.5 1149.5 M 647.5 0.5 L 647.5 1149.5 M 666.5 0.5 L 666.5 1149.5 M 685.5 0.5 L 685.5 1149.5 M 704.5 0.5 L 704.5 1149.5 M 743.5 0.5 L 743.5 1149.5 M 762.5 0.5 L 762.5 1149.5 M 781.5 0.5 L 781.5 1149.5 M 800.5 0.5 L 800.5 1149.5 M 838.5 0.5 L 838.5 1149.5 M 857.5 0.5 L 857.5 1149.5 M 876.5 0.5 L 876.5 1149.5 M 895.5 0.5 L 895.5 1149.5 M 933.5 0.5 L 933.5 1149.5 M 953.5 0.5 L 953.5 1149.5 M 972.5 0.5 L 972.5 1149.5 M 991.5 0.5 L 991.5 1149.5 M 1029.5 0.5 L 1029.5 1149.5 M 1048.5 0.5 L 1048.5 1149.5 M 1067.5 0.5 L 1067.5 1149.5 M 1086.5 0.5 L 1086.5 1149.5 M 1124.5 0.5 L 1124.5 1149.5 M 1143.5 0.5 L 1143.5 1149.5 M 1162.5 0.5 L 1162.5 1149.5 M 1182.5 0.5 L 1182.5 1149.5 M 1220.5 0.5 L 1220.5 1149.5 M 1239.5 0.5 L 1239.5 1149.5 M 1258.5 0.5 L 1258.5 1149.5 M 1277.5 0.5 L 1277.5 1149.5 M 1315.5 0.5 L 1315.5 1149.5 M 1334.5 0.5 L 1334.5 1149.5 M 1353.5 0.5 L 1353.5 1149.5 M 1372.5 0.5 L 1372.5 1149.5 M 1411.5 0.5 L 1411.5 1149.5 M 1430.5 0.5 L 1430.5 1149.5" stroke-opacity="0.23529411764705882" stroke-linecap="round" stroke-linejoin="round" stroke-miterlimit="10"/><path fill="none" stroke="rgb(192,192,192)" paint-order="fill stroke markers" d=" M 0.5 66.5 L 1431.5 66.5 M 0.5 66.5 L 1431.5 66.5 M 0.5 162.5 L 1431.5 162.5 M 0.5 257.5 L 1431.5 257.5 M 0.5 353.5 L 1431.5 353.5 M 0.5 448.5 L 1431.5 448.5 M 0.5 544.5 L 1431.5 544.5 M 0.5 639.5 L 1431.5 639.5 M 0.5 734.5 L 1431.5 734.5 M 0.5 830.5 L 1431.5 830.5 M 0.5 925.5 L 1431.5 925.5 M 0.5 1021.5 L 1431.5 1021.5 M 0.5 1116.5 L 1431.5 1116.5" stroke-opacity="1" stroke-linecap="round" stroke-linejoin="round" stroke-miterlimit="10"/><path fill="none" stroke="rgb(192,192,192)" paint-order="fill stroke markers" d=" M 0.5 9.5 L 1431.5 9.5 M 0.5 9.5 L 1431.5 9.5 M 0.5 28.5 L 1431.5 28.5 M 0.5 47.5 L 1431.5 47.5 M 0.5 86.5 L 1431.5 86.5 M 0.5 105.5 L 1431.5 105.5 M 0.5 124.5 L 1431.5 124.5 M 0.5 143.5 L 1431.5 143.5 M 0.5 181.5 L 1431.5 181.5 M 0.5 200.5 L 1431.5 200.5 M 0.5 219.5 L 1431.5 219.5 M 0.5 238.5 L 1431.5 238.5 M 0.5 276.5 L 1431.5 276.5 M 0.5 295.5 L 1431.5 295.5 M 0.5 315.5 L 1431.5 315.5 M 0.5 334.5 L 1431.5 334.5 M 0.5 372.5 L 1431.5 372.5 M 0.5 391.5 L 1431.5 391.5 M 0.5 410.5 L 1431.5 410.5 M 0.5 429.5 L 1431.5 429.5 M 0.5 467.5 L 1431.5 467.5 M 0.5 486.5 L 1431.5 486.5 M 0.5 505.5 L 1431.5 505.5 M 0.5 524.5 L 1431.5 524.5 M 0.5 563.5 L 1431.5 563.5 M 0.5 582.5 L 1431.5 582.5 M 0.5 601.5 L 1431.5 601.5 M 0.5 620.5 L 1431.5 620.5 M 0.5 658.5 L 1431.5 658.5 M 0.5 677.5 L 1431.5 677.5 M 0.5 696.5 L 1431.5 696.5 M 0.5 715.5 L 1431.5 715.5 M 0.5 753.5 L 1431.5 753.5 M 0.5 773.5 L 1431.5 773.5 M 0.5 792.5 L 1431.5 792.5 M 0.5 811.5 L 1431.5 811.5 M 0.5 849.5 L 1431.5 849.5 M 0.5 868.5 L 1431.5 868.5 M 0.5 887.5 L 1431.5 887.5 M 0.5 906.5 L 1431.5 906.5 M 0.5 944.5 L 1431.5 944.5 M 0.5 963.5 L 1431.5 963.5 M 0.5 982.5 L 1431.5 982.5 M 0.5 1002.5 L 1431.5 1002.5 M 0.5 1040.5 L 1431.5 1040.5 M 0.5 1059.5 L 1431.5 1059.5 M 0.5 1078.5 L 1431.5 1078.5 M 0.5 1097.5 L 1431.5 1097.5 M 0.5 1135.5 L 1431.5 1135.5" stroke-opacity="0.23529411764705882" stroke-linecap="round" stroke-linejoin="round" stroke-miterlimit="10"/><path fill="rgb(21,101,192)" stroke="none" paint-order="stroke fill markers" fill-rule="evenodd" d=" M 394.34263698421694 253.47551463129722 L 603.7916229278429 328.85806538093937 L 603.3145181762629 786.4015221461723 L 396.728160742117 703.3852953712499 L 394.34263698421694 253.47551463129722 Z" fill-opacity="0.09803921568627451"/><path fill="rgb(21,101,192)" stroke="none" paint-order="stroke fill markers" fill-rule="evenodd" d=" M 957.803348600213 679.0529530406693 L 749.3085721597471 599.853564278387 L 751.2169911660671 159.48587857003457 L 962.5743961160131 231.5286960586166 L 957.803348600213 679.0529530406693 Z" fill-opacity="0.09803921568627451"/><path fill="none" stroke="rgb(21,101,192)" paint-order="fill stroke markers" d=" M 394.34263698421694 253.47551463129722 L 603.7916229278429 328.85806538093937" stroke-opacity="0.6980392156862745" stroke-linecap="round" stroke-linejoin="round" stroke-miterlimit="10"/><path fill="none" stroke="rgb(21,101,192)" paint-order="fill stroke markers" d=" M 603.7916229278429 328.85806538093937 L 603.3145181762629 786.4015221461723" stroke-opacity="0.6980392156862745" stroke-linecap="round" stroke-linejoin="round" stroke-miterlimit="10"/><path fill="none" stroke="rgb(46,125,50)" paint-order="fill stroke markers" d=" M 855.2258270105101 284.9644282355781 L 750.2627816629071 393.74431159582116" stroke-opacity="0.6980392156862745" stroke-linejoin="round" stroke-miterlimit="10" stroke-width="1.5" stroke-dasharray="9.5,8"/><path fill="none" stroke="rgb(46,125,50)" paint-order="fill stroke markers" d=" M 750.2627816629071 393.74431159582116 L 603.7916229278429 545.9407273498455" stroke-opacity="0.6980392156862745" stroke-linejoin="round" stroke-miterlimit="10" stroke-width="1.5" stroke-dasharray="9.5,8"/><path fill="none" stroke="rgb(46,125,50)" paint-order="fill stroke markers" d=" M 603.7916229278429 545.9407273498455 L 498.82857758023994 654.7206107100885" stroke-opacity="0.6980392156862745" stroke-linejoin="round" stroke-miterlimit="10" stroke-width="1.5" stroke-dasharray="9.5,8"/><path fill="none" stroke="rgb(211,47,47)" paint-order="fill stroke markers" d=" M 1075.1711174888965 423.324806193782 L 960.188872358113 436.2066344864424" stroke-opacity="0.6980392156862745" stroke-linejoin="round" stroke-miterlimit="10" stroke-width="1.5" stroke-dasharray="9.5,8"/><path fill="none" stroke="rgb(211,47,47)" paint-order="fill stroke markers" d=" M 960.188872358113 436.2066344864424 L 917.7265494674919 441.45478675382253" stroke-opacity="0.6980392156862745" stroke-linejoin="round" stroke-miterlimit="10" stroke-width="1.5" stroke-dasharray="9.5,8"/><path fill="none" stroke="rgb(211,47,47)" paint-order="fill stroke markers" d=" M 917.7265494674919 441.45478675382253 L 749.7856769113271 460.061872065443" stroke-opacity="0.6980392156862745" stroke-linejoin="round" stroke-miterlimit="10" stroke-width="1.5" stroke-dasharray="9.5,8"/><path fill="none" stroke="rgb(211,47,47)" paint-order="fill stroke markers" d=" M 749.7856769113271 460.061872065443 L 603.7916229278429 476.7605383707435" stroke-opacity="0.6980392156862745" stroke-linejoin="round" stroke-miterlimit="10" stroke-width="1.5" stroke-dasharray="9.5,8"/><path fill="none" stroke="rgb(211,47,47)" paint-order="fill stroke markers" d=" M 603.7916229278429 476.7605383707435 L 436.32785512325813 495.36762368236407" stroke-opacity="0.6980392156862745" stroke-linejoin="round" stroke-miterlimit="10" stroke-width="1.5" stroke-dasharray="9.5,8"/><path fill="none" stroke="rgb(21,101,192)" paint-order="fill stroke markers" d=" M 603.3145181762629 786.4015221461723 L 396.728160742117 703.3852953712499" stroke-opacity="0.6980392156862745" stroke-linecap="round" stroke-linejoin="round" stroke-miterlimit="10"/><path fill="none" stroke="rgb(211,47,47)" paint-order="fill stroke markers" d=" M 423.44602683059776 374.18301678104064 L 603.7916229278429 440.5005772506625" stroke-opacity="0.6980392156862745" stroke-linejoin="round" stroke-miterlimit="10" stroke-width="1.5" stroke-dasharray="9.5,8"/><path fill="none" stroke="rgb(211,47,47)" paint-order="fill stroke markers" d=" M 603.7916229278429 440.5005772506625 L 749.7856769113271 494.41341417920404" stroke-opacity="0.6980392156862745" stroke-linecap="round" stroke-linejoin="round" stroke-miterlimit="10" stroke-width="1.5"/><path fill="none" stroke="rgb(211,47,47)" paint-order="fill stroke markers" d=" M 749.7856769113271 494.41341417920404 L 958.757558103373 571.7043839351662" stroke-opacity="0.6980392156862745" stroke-linecap="round" stroke-linejoin="round" stroke-miterlimit="10" stroke-width="1.5"/><path fill="none" stroke="rgb(21,101,192)" paint-order="fill stroke markers" d=" M 396.728160742117 703.3852953712499 L 394.34263698421694 253.47551463129722" stroke-opacity="0.6980392156862745" stroke-linecap="round" stroke-linejoin="round" stroke-miterlimit="10"/><path fill="none" stroke="rgb(0,51,204)" paint-order="fill stroke markers" d=" M 1025.552223324575 369.8890740168205 L 960.6659771096931 388.496159328441" stroke-opacity="0.6980392156862745" stroke-linecap="round" stroke-linejoin="round" stroke-miterlimit="10" stroke-width="1.5"/><path fill="none" stroke="rgb(0,51,204)" paint-order="fill stroke markers" d=" M 960.6659771096931 388.496159328441 L 854.27161750735 418.5537586779819" stroke-opacity="0.6980392156862745" stroke-linejoin="round" stroke-miterlimit="10" stroke-width="1.5" stroke-dasharray="9.5,8"/><path fill="none" stroke="rgb(0,51,204)" paint-order="fill stroke markers" d=" M 854.27161750735 418.5537586779819 L 749.7856769113271 448.13425327594274" stroke-opacity="0.6980392156862745" stroke-linecap="round" stroke-linejoin="round" stroke-miterlimit="10" stroke-width="1.5"/><path fill="none" stroke="rgb(0,51,204)" paint-order="fill stroke markers" d=" M 749.7856769113271 448.13425327594274 L 603.7916229278429 489.6423666634039" stroke-opacity="0.6980392156862745" stroke-linecap="round" stroke-linejoin="round" stroke-miterlimit="10" stroke-width="1.5"/><path fill="none" stroke="rgb(0,51,204)" paint-order="fill stroke markers" d=" M 603.7916229278429 489.6423666634039 L 498.3514728286599 519.2228612613648" stroke-opacity="0.6980392156862745" stroke-linejoin="round" stroke-miterlimit="10" stroke-width="1.5" stroke-dasharray="9.5,8"/><path fill="none" stroke="rgb(0,51,204)" paint-order="fill stroke markers" d=" M 498.3514728286599 519.2228612613648 L 395.773951238957 548.3262511077455" stroke-opacity="0.6980392156862745" stroke-linecap="round" stroke-linejoin="round" stroke-miterlimit="10" stroke-width="1.5"/><path fill="none" stroke="rgb(21,101,192)" paint-order="fill stroke markers" d=" M 957.803348600213 679.0529530406693 L 749.3085721597471 599.853564278387" stroke-opacity="0.6980392156862745" stroke-linecap="round" stroke-linejoin="round" stroke-miterlimit="10"/><path fill="none" stroke="rgb(21,101,192)" paint-order="fill stroke markers" d=" M 749.3085721597471 599.853564278387 L 751.2169911660671 159.48587857003457" stroke-opacity="0.6980392156862745" stroke-linecap="round" stroke-linejoin="round" stroke-miterlimit="10"/><path fill="none" stroke="rgb(21,101,192)" paint-order="fill stroke markers" d=" M 751.2169911660671 159.48587857003457 L 962.5743961160131 231.5286960586166" stroke-opacity="0.6980392156862745" stroke-linecap="round" stroke-linejoin="round" stroke-miterlimit="10"/><path fill="none" stroke="rgb(21,101,192)" paint-order="fill stroke markers" d=" M 962.5743961160131 231.5286960586166 L 957.803348600213 679.0529530406693" stroke-opacity="0.6980392156862745" stroke-linecap="round" stroke-linejoin="round" stroke-miterlimit="10"/><path fill="none" stroke="rgb(46,125,50)" paint-order="fill stroke markers" d=" M 971.1622816444533 164.25692608583466 L 920.589177976972 217.2155535112162" stroke-opacity="0.6980392156862745" stroke-linejoin="round" stroke-miterlimit="10" stroke-width="1.5" stroke-dasharray="9.5,8"/><path fill="none" stroke="rgb(46,125,50)" paint-order="fill stroke markers" d=" M 920.589177976972 217.2155535112162 L 855.2258270105101 284.9644282355781" stroke-opacity="0.6980392156862745" stroke-linejoin="round" stroke-miterlimit="10" stroke-width="1.5" stroke-dasharray="9.5,8"/><path fill="none" stroke="rgb(21,101,192)" paint-order="fill stroke markers" d=" M 394.34263698421694 253.47551463129722 L 603.7916229278429 328.85806538093937" stroke-opacity="0.6980392156862745" stroke-linecap="round" stroke-linejoin="round" stroke-miterlimit="10"/><path fill="none" stroke="rgb(21,101,192)" paint-order="fill stroke markers" d=" M 603.7916229278429 328.85806538093937 L 603.3145181762629 786.4015221461723" stroke-opacity="0.6980392156862745" stroke-linecap="round" stroke-linejoin="round" stroke-miterlimit="10"/><path fill="none" stroke="rgb(21,101,192)" paint-order="fill stroke markers" d=" M 603.3145181762629 786.4015221461723 L 396.728160742117 703.3852953712499" stroke-opacity="0.6980392156862745" stroke-linecap="round" stroke-linejoin="round" stroke-miterlimit="10"/><path fill="none" stroke="rgb(21,101,192)" paint-order="fill stroke markers" d=" M 396.728160742117 703.3852953712499 L 394.34263698421694 253.47551463129722" stroke-opacity="0.6980392156862745" stroke-linecap="round" stroke-linejoin="round" stroke-miterlimit="10"/><path fill="none" stroke="rgb(21,101,192)" paint-order="fill stroke markers" d=" M 394.34263698421694 253.47551463129722 L 394.34263698421694 253.47551463129722" stroke-opacity="0.6980392156862745" stroke-linecap="round" stroke-linejoin="round" stroke-miterlimit="10"/><path fill="none" stroke="rgb(21,101,192)" paint-order="fill stroke markers" d=" M 957.803348600213 679.0529530406693 L 749.3085721597471 599.853564278387" stroke-opacity="0.6980392156862745" stroke-linecap="round" stroke-linejoin="round" stroke-miterlimit="10"/><path fill="none" stroke="rgb(21,101,192)" paint-order="fill stroke markers" d=" M 749.3085721597471 599.853564278387 L 751.2169911660671 159.48587857003457" stroke-opacity="0.6980392156862745" stroke-linecap="round" stroke-linejoin="round" stroke-miterlimit="10"/><path fill="none" stroke="rgb(21,101,192)" paint-order="fill stroke markers" d=" M 751.2169911660671 159.48587857003457 L 962.5743961160131 231.5286960586166" stroke-opacity="0.6980392156862745" stroke-linecap="round" stroke-linejoin="round" stroke-miterlimit="10"/><path fill="none" stroke="rgb(21,101,192)" paint-order="fill stroke markers" d=" M 962.5743961160131 231.5286960586166 L 957.803348600213 679.0529530406693" stroke-opacity="0.6980392156862745" stroke-linecap="round" stroke-linejoin="round" stroke-miterlimit="10"/><path fill="none" stroke="rgb(21,101,192)" paint-order="fill stroke markers" d=" M 957.803348600213 679.0529530406693 L 957.803348600213 679.0529530406693" stroke-opacity="0.6980392156862745" stroke-linecap="round" stroke-linejoin="round" stroke-miterlimit="10"/><path fill="none" stroke="rgb(0,0,0)" paint-order="fill stroke markers" d=" M 971.1622816444533 164.25692608583466 L 1083 199" stroke-opacity="0.6980392156862745" stroke-linejoin="round" stroke-miterlimit="10" stroke-width="2.5" stroke-dasharray="2.5,3"/><path fill="none" stroke="rgb(0,0,0)" paint-order="fill stroke markers" d=" M 1079 422 L 1083 199" stroke-opacity="0.6980392156862745" stroke-linejoin="round" stroke-miterlimit="10" stroke-width="2.5" stroke-dasharray="2.5,3"/><path fill="rgb(46,125,50)" stroke="none" paint-order="stroke fill markers" d=" M 855.2258270105101 284.9644282355781 L 851.1116462484765 300.9354493881943 L 854.1115697207947 300.95687741299656 L 854.1115697207927 300.95687741299656 L 853.271643016578 418.5466160030478 C 853.2676982261389 419.098886664521 853.7122041709428 419.5497883783148 854.264474832416 419.5537331687539 C 854.2669079245692 419.5537505479836 854.2693390492071 419.55375922303233 854.2717681767784 419.55375922303233 C 854.8207098178068 419.5537592230323 855.2676645869127 419.11073892223595 855.2715919981221 418.56090135291595 L 856.1115187023368 300.9711627628648 L 856.1115187023506 300.9711627628648 L 859.1114421746529 300.992590787667 L 855.2258270105101 284.9644282355781 Z" fill-opacity="0.6980392156862745"/><path fill="rgb(211,47,47)" stroke="none" paint-order="stroke fill markers" d=" M 854.2716732770814 417.5534863460808 C 853.8621894899387 417.5534863460808 853.4780237307342 417.80691215622807 853.331000866054 418.2142880104464 C 853.1435163933593 418.7337762368713 853.4126586133897 419.3068908465832 853.9321468398145 419.49437531927794 L 902.3372125392196 436.96387271455194 L 901.3188005366135 439.78572263844006 L 917.7265494674919 441.45478675382253 L 904.0345658768967 432.2607895080717 L 903.0161538742906 435.08263943195976 L 903.0161538742905 435.08263943195976 L 854.6110881748855 417.6131420366858 C 854.498975802679 417.5726804286714 854.3843657655568 417.5534863460808 854.2716732770814 417.5534863460808 Z" fill-opacity="0.6980392156862745"/><path fill="rgb(46,125,50)" stroke="none" paint-order="stroke fill markers" d=" M 498.3515485635636 518.2228611271887 C 498.35035010507994 518.2228611271887 498.349151157292 518.2228632371163 498.3479517237272 518.2228674604739 C 497.79567039756984 518.2248121130308 497.3495343752122 518.6741010401402 497.3514790277691 519.2263823662975 L 497.77224610042566 638.7242310007682 C 497.7722461004259 638.7242310008266 497.7722461004261 638.7242310008851 497.77224610042634 638.7242310009434 L 497.7722460506713 638.7242310009434 L 494.77226469775326 638.7347943155663 L 498.82857758023994 654.7206107100885 L 502.7722151048797 638.7066254761047 L 499.7722337022396 638.7171887909027 L 499.7722337022073 638.7171887909027 L 499.3514666295507 519.219340156432 C 499.3495262003515 518.6682582638396 498.90218245338275 518.2228611271888 498.3515485635636 518.2228611271887 Z" fill-opacity="0.6980392156862745"/><path fill="rgb(211,47,47)" stroke="none" paint-order="stroke fill markers" d=" M 436.32785512325813 495.36762368236407 L 449.8254685052716 504.84467137611824 L 450.9024057431982 502.044634557509 L 497.992493749351 520.1562068675678 C 498.11054698587935 520.2016119585403 498.2319109090404 520.2231307680968 498.35125870715007 520.2231307680968 C 498.753036081009 520.2231307680967 499.1319648548248 519.9792596487728 499.2848184348629 519.5818403406736 C 499.4830771058735 519.066367796046 499.2259244525963 518.4877743261724 498.7104519079688 518.2895156551617 L 451.62036390181595 500.17794334510296 L 452.69730113974254 497.37790652649375 L 436.32785512325813 495.36762368236407 Z" fill-opacity="0.6980392156862745"/><path fill="rgb(46,125,50)" stroke="none" paint-order="stroke fill markers" d=" M 971.1622816444533 164.2569260858346 L 966.9904797992265 180.21299293716618 L 969.990306383809 180.2452491370004 L 969.9903063838096 180.2452491370004 L 967.7768156916921 386.09988350392956 C 967.7708774892735 386.65213632886366 968.2137529950077 387.10463956298344 968.7660058199418 387.11057776540207 C 968.7696684020858 387.11061714800576 968.773326596802 387.11063678979946 968.7769803029216 387.11063678979946 C 969.3242410737292 387.11063678979946 969.7708012615994 386.6699778799425 969.7767000814143 386.1213876371524 L 971.9901907735318 180.26675327022323 L 971.9901907735325 180.26675327022323 L 974.990017358115 180.29900947005746 L 971.1622816444533 164.2569260858346 Z" fill-opacity="0.6980392156862745"/><path fill="rgb(211,47,47)" stroke="none" paint-order="stroke fill markers" d=" M 968.7767357071527 385.1103630714668 C 968.3635719213287 385.1103630714668 967.9769654223431 385.36840439370496 967.8328335581245 385.78047369781706 C 967.6504901908436 386.30178870940244 967.9252810022439 386.8722165316886 968.4465960138293 387.0545598989696 L 1059.7381663613146 418.98614055862805 L 1058.7476807431428 421.8179135439139 L 1075.1711174888965 423.324806193782 L 1061.3889757249342 414.2665189164849 L 1060.3984901067624 417.0982919017707 L 1060.3984901067622 417.0982919017707 L 969.1069197592772 385.16671124211234 C 968.9976740518039 385.1284997390499 968.8862715780227 385.1103630714668 968.7767357071527 385.1103630714668 Z" fill-opacity="0.6980392156862745"/><path fill="rgb(0,204,0)" stroke="none" paint-order="stroke fill markers" d=" M 679.1741736774851 242.50210534495687 L 675.392267344081 257.49409268771296 L 678.3922605536904 257.5004756519887 L 678.3922605537011 257.5004756519887 L 677.46996587192 690.9789760891006 C 677.4690845684629 691.3931887139179 677.8041558084387 691.7296888291175 678.218368433256 691.7305701325746 C 678.218912007368 691.7305712891152 678.2194554476473 691.7305718670954 678.2199987535112 691.7305718670954 C 678.6334636629764 691.7305718670954 678.9690823298137 691.3958366219439 678.9699624767301 690.9821675712385 L 679.8922571585113 257.50366713412666 L 679.8922571585219 257.50366713412666 L 682.8922503681314 257.5100500984024 L 679.1741736774851 242.50210534495687 Z" fill-opacity="0.6980392156862745"/><path fill="rgb(211,47,47)" stroke="none" paint-order="stroke fill markers" d=" M 958.7576504738954 570.9541802719516 C 958.452963649346 570.9541802719517 958.1664725523125 571.141227850132 958.0543418911982 571.4436408452588 C 957.9103374590186 571.8320164350766 958.1084394236476 572.2635957151614 958.4968150134655 572.407600147341 L 986.8948136605906 582.9371951513311 L 985.8518413009605 585.7500600000304 L 1001.2198809939941 587.4488407373067 L 988.4592722000356 578.7178978782823 L 987.4162998404056 581.5307627269815 L 987.4162998404051 581.5307627269815 L 959.0183011932804 571.0011677229915 C 958.9323385985892 570.9692939519261 958.8442594173885 570.9541802719516 958.7576504738954 570.9541802719516 Z" fill-opacity="0.6980392156862745"/><path fill="rgb(0,51,204)" stroke="none" paint-order="stroke fill markers" d=" M 389.12820665759364 546.3249764045919 L 375.73555167259644 554.0515081267057 L 391.18861511682394 553.5364060118981 L 390.36445173313183 550.6518341689756 L 395.97999208488005 549.0473940684761 C 396.3782683445394 548.9336008514306 396.6088874167332 548.5184865214818 396.4950941996876 548.1202102618224 C 396.40097210211906 547.7907829203324 396.1007015867105 547.5760580090922 395.77432311924525 547.5760580090922 C 395.70611140282506 547.5760580090922 395.6367593112034 547.585437027538 395.56791039303397 547.6051081470149 L 389.95237004128575 549.2095482475144 L 389.12820665759364 546.3249764045919 Z" fill-opacity="0.6980392156862745"/><path fill="rgb(97,97,97)" stroke="none" paint-order="stroke fill markers" d=" M 974.1622816444533 164.25692608583466 C 974.1622816444533 165.91378033532703 972.8191358939457 167.25692608583466 971.1622816444533 167.25692608583466 C 969.5054273949609 167.25692608583466 968.1622816444533 165.91378033532703 968.1622816444533 164.25692608583466 C 968.1622816444533 162.6000718363423 969.5054273949609 161.25692608583466 971.1622816444533 161.25692608583466 C 972.8191358939457 161.25692608583466 974.1622816444533 162.6000718363423 974.1622816444533 164.25692608583466 Z" fill-opacity="1"/><path fill="none" stroke="rgb(0,0,0)" paint-order="fill stroke markers" d=" M 974.1622816444533 164.25692608583466 C 974.1622816444533 165.91378033532703 972.8191358939457 167.25692608583466 971.1622816444533 167.25692608583466 C 969.5054273949609 167.25692608583466 968.1622816444533 165.91378033532703 968.1622816444533 164.25692608583466 C 968.1622816444533 162.6000718363423 969.5054273949609 161.25692608583466 971.1622816444533 161.25692608583466 C 972.8191358939457 161.25692608583466 974.1622816444533 162.6000718363423 974.1622816444533 164.25692608583466 Z" stroke-opacity="1" stroke-linecap="round" stroke-linejoin="round" stroke-miterlimit="10"/><path fill="rgb(97,97,97)" stroke="none" paint-order="stroke fill markers" d=" M 501.82857758023994 654.7206107100885 C 501.82857758023994 656.377464959581 500.4854318297323 657.7206107100885 498.82857758023994 657.7206107100885 C 497.17172333074757 657.7206107100885 495.82857758023994 656.377464959581 495.82857758023994 654.7206107100885 C 495.82857758023994 653.0637564605961 497.17172333074757 651.7206107100885 498.82857758023994 651.7206107100885 C 500.4854318297323 651.7206107100885 501.82857758023994 653.0637564605961 501.82857758023994 654.7206107100885 Z" fill-opacity="1"/><path fill="none" stroke="rgb(0,0,0)" paint-order="fill stroke markers" d=" M 501.82857758023994 654.7206107100885 C 501.82857758023994 656.377464959581 500.4854318297323 657.7206107100885 498.82857758023994 657.7206107100885 C 497.17172333074757 657.7206107100885 495.82857758023994 656.377464959581 495.82857758023994 654.7206107100885 C 495.82857758023994 653.0637564605961 497.17172333074757 651.7206107100885 498.82857758023994 651.7206107100885 C 500.4854318297323 651.7206107100885 501.82857758023994 653.0637564605961 501.82857758023994 654.7206107100885 Z" stroke-opacity="1" stroke-linecap="round" stroke-linejoin="round" stroke-miterlimit="10"/><path fill="rgb(97,97,97)" stroke="none" paint-order="stroke fill markers" d=" M 858.2258270105101 284.9644282355781 C 858.2258270105101 286.6212824850705 856.8826812600025 287.9644282355781 855.2258270105101 287.9644282355781 C 853.5689727610177 287.9644282355781 852.2258270105101 286.6212824850705 852.2258270105101 284.9644282355781 C 852.2258270105101 283.30757398608574 853.5689727610177 281.9644282355781 855.2258270105101 281.9644282355781 C 856.8826812600025 281.9644282355781 858.2258270105101 283.30757398608574 858.2258270105101 284.9644282355781 Z" fill-opacity="1"/><path fill="none" stroke="rgb(0,0,0)" paint-order="fill stroke markers" d=" M 858.2258270105101 284.9644282355781 C 858.2258270105101 286.6212824850705 856.8826812600025 287.9644282355781 855.2258270105101 287.9644282355781 C 853.5689727610177 287.9644282355781 852.2258270105101 286.6212824850705 852.2258270105101 284.9644282355781 C 852.2258270105101 283.30757398608574 853.5689727610177 281.9644282355781 855.2258270105101 281.9644282355781 C 856.8826812600025 281.9644282355781 858.2258270105101 283.30757398608574 858.2258270105101 284.9644282355781 Z" stroke-opacity="1" stroke-linecap="round" stroke-linejoin="round" stroke-miterlimit="10"/><path fill="rgb(21,101,192)" stroke="none" paint-order="stroke fill markers" d=" M 1084 422 C 1084 424.76142374915395 1081.761423749154 427 1079 427 C 1076.238576250846 427 1074 424.76142374915395 1074 422 C 1074 419.23857625084605 1076.238576250846 417 1079 417 C 1081.761423749154 417 1084 419.23857625084605 1084 422 Z" fill-opacity="1"/><path fill="none" stroke="rgb(0,0,0)" paint-order="fill stroke markers" d=" M 1084 422 C 1084 424.76142374915395 1081.761423749154 427 1079 427 C 1076.238576250846 427 1074 424.76142374915395 1074 422 C 1074 419.23857625084605 1076.238576250846 417 1079 417 C 1081.761423749154 417 1084 419.23857625084605 1084 422 Z" stroke-opacity="1" stroke-linecap="round" stroke-linejoin="round" stroke-miterlimit="10"/><path fill="rgb(21,101,192)" stroke="none" paint-order="stroke fill markers" d=" M 1088 199 C 1088 201.76142374915398 1085.761423749154 204 1083 204 C 1080.238576250846 204 1078 201.76142374915398 1078 199 C 1078 196.23857625084602 1080.238576250846 194 1083 194 C 1085.761423749154 194 1088 196.23857625084602 1088 199 Z" fill-opacity="1"/><path fill="none" stroke="rgb(0,0,0)" paint-order="fill stroke markers" d=" M 1088 199 C 1088 201.76142374915398 1085.761423749154 204 1083 204 C 1080.238576250846 204 1078 201.76142374915398 1078 199 C 1078 196.23857625084602 1080.238576250846 194 1083 194 C 1085.761423749154 194 1088 196.23857625084602 1088 199 Z" stroke-opacity="1" stroke-linecap="round" stroke-linejoin="round" stroke-miterlimit="10"/><path fill="rgb(21,101,192)" stroke="none" paint-order="stroke fill markers" d=" M 503.863826640535 519.0791239928749 C 503.863826640535 521.8405477420289 501.625250389689 524.0791239928749 498.863826640535 524.0791239928749 C 496.1024028913811 524.0791239928749 493.863826640535 521.8405477420289 493.863826640535 519.0791239928749 C 493.863826640535 516.3177002437209 496.1024028913811 514.0791239928749 498.863826640535 514.0791239928749 C 501.625250389689 514.0791239928749 503.863826640535 516.3177002437209 503.863826640535 519.0791239928749 Z" fill-opacity="1"/><path fill="none" stroke="rgb(0,0,0)" paint-order="fill stroke markers" d=" M 503.863826640535 519.0791239928749 C 503.863826640535 521.8405477420289 501.625250389689 524.0791239928749 498.863826640535 524.0791239928749 C 496.1024028913811 524.0791239928749 493.863826640535 521.8405477420289 493.863826640535 519.0791239928749 C 493.863826640535 516.3177002437209 496.1024028913811 514.0791239928749 498.863826640535 514.0791239928749 C 501.625250389689 514.0791239928749 503.863826640535 516.3177002437209 503.863826640535 519.0791239928749 Z" stroke-opacity="1" stroke-linecap="round" stroke-linejoin="round" stroke-miterlimit="10"/><path fill="rgb(97,97,97)" stroke="none" paint-order="stroke fill markers" d=" M 859.2716175073473 418.5537586779828 C 859.2716175073473 421.31518242713673 857.0330412565013 423.5537586779828 854.2716175073473 423.5537586779828 C 851.5101937581933 423.5537586779828 849.2716175073473 421.31518242713673 849.2716175073473 418.5537586779828 C 849.2716175073473 415.79233492882884 851.5101937581933 413.5537586779828 854.2716175073473 413.5537586779828 C 857.0330412565013 413.5537586779828 859.2716175073473 415.79233492882884 859.2716175073473 418.5537586779828 Z" fill-opacity="1"/><path fill="none" stroke="rgb(0,0,0)" paint-order="fill stroke markers" d=" M 859.2716175073473 418.5537586779828 C 859.2716175073473 421.31518242713673 857.0330412565013 423.5537586779828 854.2716175073473 423.5537586779828 C 851.5101937581933 423.5537586779828 849.2716175073473 421.31518242713673 849.2716175073473 418.5537586779828 C 849.2716175073473 415.79233492882884 851.5101937581933 413.5537586779828 854.2716175073473 413.5537586779828 C 857.0330412565013 413.5537586779828 859.2716175073473 415.79233492882884 859.2716175073473 418.5537586779828 Z" stroke-opacity="1" stroke-linecap="round" stroke-linejoin="round" stroke-miterlimit="10"/><path fill="rgb(97,97,97)" stroke="none" paint-order="stroke fill markers" d=" M 683.60456325264 468.2035027126785 C 683.60456325264 470.9649264618325 681.365987001794 473.2035027126785 678.60456325264 473.2035027126785 C 675.843139503486 473.2035027126785 673.60456325264 470.9649264618325 673.60456325264 468.2035027126785 C 673.60456325264 465.4420789635246 675.843139503486 463.2035027126785 678.60456325264 463.2035027126785 C 681.365987001794 463.2035027126785 683.60456325264 465.4420789635246 683.60456325264 468.2035027126785 Z" fill-opacity="1"/><path fill="none" stroke="rgb(0,0,0)" paint-order="fill stroke markers" d=" M 683.60456325264 468.2035027126785 C 683.60456325264 470.9649264618325 681.365987001794 473.2035027126785 678.60456325264 473.2035027126785 C 675.843139503486 473.2035027126785 673.60456325264 470.9649264618325 673.60456325264 468.2035027126785 C 673.60456325264 465.4420789635246 675.843139503486 463.2035027126785 678.60456325264 463.2035027126785 C 681.365987001794 463.2035027126785 683.60456325264 465.4420789635246 683.60456325264 468.2035027126785 Z" stroke-opacity="1" stroke-linecap="round" stroke-linejoin="round" stroke-miterlimit="10"/><path fill="rgb(21,101,192)" stroke="none" paint-order="stroke fill markers" d=" M 976.4061337993652 385.4162614541968 C 976.4061337993652 388.17768520335073 974.1675575485192 390.4162614541968 971.4061337993652 390.4162614541968 C 968.6447100502112 390.4162614541968 966.4061337993652 388.17768520335073 966.4061337993652 385.4162614541968 C 966.4061337993652 382.65483770504284 968.6447100502112 380.4162614541968 971.4061337993652 380.4162614541968 C 974.1675575485192 380.4162614541968 976.4061337993652 382.65483770504284 976.4061337993652 385.4162614541968 Z" fill-opacity="1"/><path fill="none" stroke="rgb(0,0,0)" paint-order="fill stroke markers" d=" M 976.4061337993652 385.4162614541968 C 976.4061337993652 388.17768520335073 974.1675575485192 390.4162614541968 971.4061337993652 390.4162614541968 C 968.6447100502112 390.4162614541968 966.4061337993652 388.17768520335073 966.4061337993652 385.4162614541968 C 966.4061337993652 382.65483770504284 968.6447100502112 380.4162614541968 971.4061337993652 380.4162614541968 C 974.1675575485192 380.4162614541968 976.4061337993652 382.65483770504284 976.4061337993652 385.4162614541968 Z" stroke-opacity="1" stroke-linecap="round" stroke-linejoin="round" stroke-miterlimit="10"/><g transform="scale(31,31)"><g transform="translate(28.06451612903226,9.779774193548388)"><path fill="rgb(0,0,0)" stroke="none" paint-order="stroke fill markers" d=" M 0.303 -0.316 L 0.303 -0.316 L 0.241 -0.066 L 0.23800000000000002 -0.049 Q 0.23800000000000002 -0.032 0.28400000000000003 -0.031 L 0.28400000000000003 -0.031 L 0.28400000000000003 -0.031 L 0.303 -0.031 Q 0.329 -0.031 0.331 -0.02 Q 0.331 0 0.311 0 L 0.247 -0.002 L 0.246 -0.002 L 0.184 -0.003 L 0.182 -0.003 L 0.056 0 L 0.055 0 Q 0.04 0 0.04 -0.012 Q 0.04 -0.029 0.056 -0.031 L 0.068 -0.031 Q 0.133 -0.031 0.146 -0.045 Q 0.152 -0.052000000000000005 0.158 -0.073 Q 0.158 -0.074 0.159 -0.078 L 0.293 -0.615 Q 0.297 -0.631 0.297 -0.634 Q 0.297 -0.646 0.281 -0.649 L 0.28 -0.649 L 0.28 -0.649 Q 0.278 -0.65 0.275 -0.65 Q 0.251 -0.652 0.232 -0.652 Q 0.20600000000000002 -0.652 0.20400000000000001 -0.66 Q 0.203 -0.662 0.203 -0.664 Q 0.203 -0.681 0.22 -0.683 L 0.22 -0.683 L 0.233 -0.683 L 0.557 -0.683 Q 0.678 -0.683 0.73 -0.609 Q 0.754 -0.5740000000000001 0.754 -0.532 Q 0.754 -0.451 0.671 -0.385 Q 0.583 -0.316 0.47300000000000003 -0.316 L 0.303 -0.316 M 0.375 -0.614 L 0.307 -0.342 L 0.448 -0.342 Q 0.543 -0.342 0.602 -0.395 Q 0.643 -0.433 0.658 -0.522 L 0.658 -0.523 Q 0.661 -0.542 0.661 -0.556 Q 0.661 -0.652 0.525 -0.652 L 0.429 -0.652 Q 0.393 -0.652 0.385 -0.642 L 0.385 -0.642 L 0.385 -0.641 L 0.384 -0.641 L 0.384 -0.64 Q 0.38 -0.634 0.375 -0.614 Z"/></g><g transform="translate(28.70651612903226,9.929774193548388) scale(0.7,0.7)"><path fill="rgb(0,0,0)" stroke="none" paint-order="stroke fill markers" d=" M 0.47700000000000004 -0.23600000000000002 L 0.47700000000000004 -0.23600000000000002 L 0.47700000000000004 -0.17400000000000002 Q 0.542 -0.255 0.5750000000000001 -0.372 Q 0.585 -0.392 0.59 -0.393 Q 0.602 -0.393 0.602 -0.383 Q 0.602 -0.366 0.579 -0.307 Q 0.545 -0.221 0.487 -0.148 Q 0.47700000000000004 -0.128 0.47700000000000004 -0.113 Q 0.47700000000000004 -0.011 0.508 -0.011 Q 0.539 -0.011 0.558 -0.046 Q 0.561 -0.052000000000000005 0.5640000000000001 -0.06 Q 0.5680000000000001 -0.07 0.577 -0.07 Q 0.589 -0.07 0.589 -0.06 Q 0.589 -0.041 0.5640000000000001 -0.015 Q 0.538 0.011 0.505 0.011 Q 0.442 0.011 0.418 -0.058 Q 0.41600000000000004 -0.065 0.41400000000000003 -0.073 Q 0.309 0.011 0.203 0.011 Q 0.109 0.011 0.065 -0.064 Q 0.041 -0.105 0.041 -0.158 Q 0.041 -0.26 0.11900000000000001 -0.34700000000000003 Q 0.196 -0.433 0.293 -0.441 Q 0.302 -0.442 0.31 -0.442 Q 0.394 -0.442 0.44 -0.376 Q 0.44 -0.375 0.441 -0.375 Q 0.47700000000000004 -0.322 0.47700000000000004 -0.23600000000000002 M 0.41000000000000003 -0.099 L 0.41000000000000003 -0.099 Q 0.40800000000000003 -0.116 0.40800000000000003 -0.211 Q 0.40800000000000003 -0.334 0.381 -0.379 Q 0.369 -0.399 0.352 -0.40900000000000003 L 0.35100000000000003 -0.41000000000000003 L 0.35100000000000003 -0.41000000000000003 L 0.35000000000000003 -0.41000000000000003 Q 0.332 -0.42 0.309 -0.42 Q 0.23800000000000002 -0.42 0.181 -0.34 L 0.17300000000000001 -0.328 Q 0.137 -0.27 0.12 -0.166 Q 0.115 -0.138 0.115 -0.12 Q 0.115 -0.036000000000000004 0.17400000000000002 -0.016 Q 0.188 -0.011 0.20500000000000002 -0.011 Q 0.309 -0.011 0.41000000000000003 -0.099 Z"/></g></g><g transform="scale(31,31)"><g transform="translate(35.41935483870968,7.00558064516129)"><path fill="rgb(0,0,0)" stroke="none" paint-order="stroke fill markers" d=" M 0.303 -0.316 L 0.303 -0.316 L 0.241 -0.066 L 0.23800000000000002 -0.049 Q 0.23800000000000002 -0.032 0.28400000000000003 -0.031 L 0.28400000000000003 -0.031 L 0.28400000000000003 -0.031 L 0.303 -0.031 Q 0.329 -0.031 0.331 -0.02 Q 0.331 0 0.311 0 L 0.247 -0.002 L 0.246 -0.002 L 0.184 -0.003 L 0.182 -0.003 L 0.056 0 L 0.055 0 Q 0.04 0 0.04 -0.012 Q 0.04 -0.029 0.056 -0.031 L 0.068 -0.031 Q 0.133 -0.031 0.146 -0.045 Q 0.152 -0.052000000000000005 0.158 -0.073 Q 0.158 -0.074 0.159 -0.078 L 0.293 -0.615 Q 0.297 -0.631 0.297 -0.634 Q 0.297 -0.646 0.281 -0.649 L 0.28 -0.649 L 0.28 -0.649 Q 0.278 -0.65 0.275 -0.65 Q 0.251 -0.652 0.232 -0.652 Q 0.20600000000000002 -0.652 0.20400000000000001 -0.66 Q 0.203 -0.662 0.203 -0.664 Q 0.203 -0.681 0.22 -0.683 L 0.22 -0.683 L 0.233 -0.683 L 0.557 -0.683 Q 0.678 -0.683 0.73 -0.609 Q 0.754 -0.5740000000000001 0.754 -0.532 Q 0.754 -0.451 0.671 -0.385 Q 0.583 -0.316 0.47300000000000003 -0.316 L 0.303 -0.316 M 0.375 -0.614 L 0.307 -0.342 L 0.448 -0.342 Q 0.543 -0.342 0.602 -0.395 Q 0.643 -0.433 0.658 -0.522 L 0.658 -0.523 Q 0.661 -0.542 0.661 -0.556 Q 0.661 -0.652 0.525 -0.652 L 0.429 -0.652 Q 0.393 -0.652 0.385 -0.642 L 0.385 -0.642 L 0.385 -0.641 L 0.384 -0.641 L 0.384 -0.64 Q 0.38 -0.634 0.375 -0.614 Z"/></g></g><g transform="scale(31,31)"><g transform="translate(15.741935483870968,22.424935483870968)"><path fill="rgb(0,0,0)" stroke="none" paint-order="stroke fill markers" d=" M 0.303 -0.316 L 0.303 -0.316 L 0.241 -0.066 L 0.23800000000000002 -0.049 Q 0.23800000000000002 -0.032 0.28400000000000003 -0.031 L 0.28400000000000003 -0.031 L 0.28400000000000003 -0.031 L 0.303 -0.031 Q 0.329 -0.031 0.331 -0.02 Q 0.331 0 0.311 0 L 0.247 -0.002 L 0.246 -0.002 L 0.184 -0.003 L 0.182 -0.003 L 0.056 0 L 0.055 0 Q 0.04 0 0.04 -0.012 Q 0.04 -0.029 0.056 -0.031 L 0.068 -0.031 Q 0.133 -0.031 0.146 -0.045 Q 0.152 -0.052000000000000005 0.158 -0.073 Q 0.158 -0.074 0.159 -0.078 L 0.293 -0.615 Q 0.297 -0.631 0.297 -0.634 Q 0.297 -0.646 0.281 -0.649 L 0.28 -0.649 L 0.28 -0.649 Q 0.278 -0.65 0.275 -0.65 Q 0.251 -0.652 0.232 -0.652 Q 0.20600000000000002 -0.652 0.20400000000000001 -0.66 Q 0.203 -0.662 0.203 -0.664 Q 0.203 -0.681 0.22 -0.683 L 0.22 -0.683 L 0.233 -0.683 L 0.557 -0.683 Q 0.678 -0.683 0.73 -0.609 Q 0.754 -0.5740000000000001 0.754 -0.532 Q 0.754 -0.451 0.671 -0.385 Q 0.583 -0.316 0.47300000000000003 -0.316 L 0.303 -0.316 M 0.375 -0.614 L 0.307 -0.342 L 0.448 -0.342 Q 0.543 -0.342 0.602 -0.395 Q 0.643 -0.433 0.658 -0.522 L 0.658 -0.523 Q 0.661 -0.542 0.661 -0.556 Q 0.661 -0.652 0.525 -0.652 L 0.429 -0.652 Q 0.393 -0.652 0.385 -0.642 L 0.385 -0.642 L 0.385 -0.641 L 0.384 -0.641 L 0.384 -0.64 Q 0.38 -0.634 0.375 -0.614 Z"/></g><g transform="translate(16.383935483870967,22.574935483870966) scale(0.7,0.7)"><path fill="rgb(0,0,0)" stroke="none" paint-order="stroke fill markers" d=" M 0.028 0.169 L 0.18 -0.437 Q 0.209 -0.551 0.292 -0.631 Q 0.37 -0.705 0.456 -0.705 Q 0.539 -0.705 0.5750000000000001 -0.639 Q 0.59 -0.611 0.59 -0.577 Q 0.59 -0.502 0.528 -0.439 Q 0.507 -0.418 0.482 -0.403 Q 0.549 -0.357 0.549 -0.264 Q 0.549 -0.161 0.46900000000000003 -0.076 Q 0.392 0.005 0.296 0.012 L 0.28300000000000003 0.012 Q 0.186 0.012 0.14100000000000001 -0.063 Q 0.129 -0.083 0.123 -0.105 L 0.048 0.188 L 0.047 0.19 Q 0.043000000000000003 0.194 0.037 0.194 Q 0.025 0.194 0.025 0.184 Q 0.025 0.181 0.028 0.169 M 0.328 -0.401 Q 0.34500000000000003 -0.395 0.371 -0.395 Q 0.401 -0.395 0.419 -0.403 Q 0.406 -0.40900000000000003 0.379 -0.40900000000000003 Q 0.34400000000000003 -0.40900000000000003 0.328 -0.401 M 0.45 -0.421 Q 0.511 -0.467 0.525 -0.577 L 0.525 -0.578 L 0.525 -0.58 Q 0.527 -0.594 0.527 -0.602 Q 0.527 -0.673 0.46900000000000003 -0.682 Q 0.462 -0.683 0.455 -0.683 Q 0.372 -0.683 0.299 -0.606 Q 0.23 -0.534 0.2 -0.41600000000000004 L 0.154 -0.231 Q 0.14100000000000001 -0.179 0.14100000000000001 -0.156 Q 0.14100000000000001 -0.074 0.2 -0.034 Q 0.234 -0.01 0.281 -0.01 Q 0.359 -0.01 0.41500000000000004 -0.094 Q 0.422 -0.10300000000000001 0.427 -0.113 Q 0.462 -0.179 0.47400000000000003 -0.274 Q 0.47600000000000003 -0.291 0.47600000000000003 -0.302 Q 0.47600000000000003 -0.355 0.446 -0.386 Q 0.41400000000000003 -0.373 0.371 -0.373 Q 0.303 -0.373 0.303 -0.399 Q 0.303 -0.431 0.381 -0.431 Q 0.422 -0.431 0.45 -0.421 Z"/></g></g><g transform="scale(31,31)"><g transform="translate(28.93548387096774,22.334225806451613)"><path fill="rgb(0,0,0)" stroke="none" paint-order="stroke fill markers" d=" M 0.47700000000000004 -0.23600000000000002 L 0.47700000000000004 -0.23600000000000002 L 0.47700000000000004 -0.17400000000000002 Q 0.542 -0.255 0.5750000000000001 -0.372 Q 0.585 -0.392 0.59 -0.393 Q 0.602 -0.393 0.602 -0.383 Q 0.602 -0.366 0.579 -0.307 Q 0.545 -0.221 0.487 -0.148 Q 0.47700000000000004 -0.128 0.47700000000000004 -0.113 Q 0.47700000000000004 -0.011 0.508 -0.011 Q 0.539 -0.011 0.558 -0.046 Q 0.561 -0.052000000000000005 0.5640000000000001 -0.06 Q 0.5680000000000001 -0.07 0.577 -0.07 Q 0.589 -0.07 0.589 -0.06 Q 0.589 -0.041 0.5640000000000001 -0.015 Q 0.538 0.011 0.505 0.011 Q 0.442 0.011 0.418 -0.058 Q 0.41600000000000004 -0.065 0.41400000000000003 -0.073 Q 0.309 0.011 0.203 0.011 Q 0.109 0.011 0.065 -0.064 Q 0.041 -0.105 0.041 -0.158 Q 0.041 -0.26 0.11900000000000001 -0.34700000000000003 Q 0.196 -0.433 0.293 -0.441 Q 0.302 -0.442 0.31 -0.442 Q 0.394 -0.442 0.44 -0.376 Q 0.44 -0.375 0.441 -0.375 Q 0.47700000000000004 -0.322 0.47700000000000004 -0.23600000000000002 M 0.41000000000000003 -0.099 L 0.41000000000000003 -0.099 Q 0.40800000000000003 -0.116 0.40800000000000003 -0.211 Q 0.40800000000000003 -0.334 0.381 -0.379 Q 0.369 -0.399 0.352 -0.40900000000000003 L 0.35100000000000003 -0.41000000000000003 L 0.35100000000000003 -0.41000000000000003 L 0.35000000000000003 -0.41000000000000003 Q 0.332 -0.42 0.309 -0.42 Q 0.23800000000000002 -0.42 0.181 -0.34 L 0.17300000000000001 -0.328 Q 0.137 -0.27 0.12 -0.166 Q 0.115 -0.138 0.115 -0.12 Q 0.115 -0.036000000000000004 0.17400000000000002 -0.016 Q 0.188 -0.011 0.20500000000000002 -0.011 Q 0.309 -0.011 0.41000000000000003 -0.099 Z"/></g></g><g transform="scale(31,31)"><g transform="translate(17.516129032258064,25.564967741935483)"><path fill="rgb(0,0,0)" stroke="none" paint-order="stroke fill markers" d=" M 0.028 0.169 L 0.18 -0.437 Q 0.209 -0.551 0.292 -0.631 Q 0.37 -0.705 0.456 -0.705 Q 0.539 -0.705 0.5750000000000001 -0.639 Q 0.59 -0.611 0.59 -0.577 Q 0.59 -0.502 0.528 -0.439 Q 0.507 -0.418 0.482 -0.403 Q 0.549 -0.357 0.549 -0.264 Q 0.549 -0.161 0.46900000000000003 -0.076 Q 0.392 0.005 0.296 0.012 L 0.28300000000000003 0.012 Q 0.186 0.012 0.14100000000000001 -0.063 Q 0.129 -0.083 0.123 -0.105 L 0.048 0.188 L 0.047 0.19 Q 0.043000000000000003 0.194 0.037 0.194 Q 0.025 0.194 0.025 0.184 Q 0.025 0.181 0.028 0.169 M 0.328 -0.401 Q 0.34500000000000003 -0.395 0.371 -0.395 Q 0.401 -0.395 0.419 -0.403 Q 0.406 -0.40900000000000003 0.379 -0.40900000000000003 Q 0.34400000000000003 -0.40900000000000003 0.328 -0.401 M 0.45 -0.421 Q 0.511 -0.467 0.525 -0.577 L 0.525 -0.578 L 0.525 -0.58 Q 0.527 -0.594 0.527 -0.602 Q 0.527 -0.673 0.46900000000000003 -0.682 Q 0.462 -0.683 0.455 -0.683 Q 0.372 -0.683 0.299 -0.606 Q 0.23 -0.534 0.2 -0.41600000000000004 L 0.154 -0.231 Q 0.14100000000000001 -0.179 0.14100000000000001 -0.156 Q 0.14100000000000001 -0.074 0.2 -0.034 Q 0.234 -0.01 0.281 -0.01 Q 0.359 -0.01 0.41500000000000004 -0.094 Q 0.422 -0.10300000000000001 0.427 -0.113 Q 0.462 -0.179 0.47400000000000003 -0.274 Q 0.47600000000000003 -0.291 0.47600000000000003 -0.302 Q 0.47600000000000003 -0.355 0.446 -0.386 Q 0.41400000000000003 -0.373 0.371 -0.373 Q 0.303 -0.373 0.303 -0.399 Q 0.303 -0.431 0.381 -0.431 Q 0.422 -0.431 0.45 -0.421 Z"/></g></g><text fill="rgb(0,0,0)" stroke="none" font-family="geogebra-sans-serif, sans-serif" font-size="28px" font-style="italic" font-weight="normal" text-decoration="normal" x="1011" y="605" text-anchor="start" dominant-baseline="alphabetic" fill-opacity="1">x</text><text fill="rgb(0,0,0)" stroke="none" font-family="geogebra-sans-serif, sans-serif" font-size="28px" font-style="italic" font-weight="normal" text-decoration="normal" x="651" y="257" text-anchor="start" dominant-baseline="alphabetic" fill-opacity="1">y</text><text fill="rgb(0,0,0)" stroke="none" font-family="geogebra-sans-serif, sans-serif" font-size="28px" font-style="italic" font-weight="normal" text-decoration="normal" x="383" y="574" text-anchor="start" dominant-baseline="alphabetic" fill-opacity="1">z</text><g transform="scale(31,31)"><g transform="translate(21.93548387096774,16.166870967741936)"><path fill="rgb(0,0,0)" stroke="none" paint-order="stroke fill markers" d=" M 0.74 -0.436 L 0.74 -0.436 Q 0.74 -0.281 0.63 -0.149 Q 0.531 -0.029 0.398 0.009000000000000001 Q 0.35100000000000003 0.022 0.305 0.022 Q 0.18 0.022 0.108 -0.066 Q 0.049 -0.138 0.049 -0.245 Q 0.049 -0.395 0.156 -0.529 Q 0.255 -0.65 0.388 -0.6900000000000001 Q 0.437 -0.705 0.485 -0.705 Q 0.612 -0.705 0.684 -0.613 Q 0.74 -0.541 0.74 -0.436 M 0.311 -0.004 L 0.311 -0.004 Q 0.405 -0.004 0.492 -0.088 Q 0.51 -0.105 0.525 -0.124 Q 0.623 -0.246 0.646 -0.41500000000000004 Q 0.651 -0.448 0.651 -0.47500000000000003 Q 0.651 -0.612 0.559 -0.661 Q 0.558 -0.661 0.557 -0.662 Q 0.521 -0.68 0.47900000000000004 -0.68 Q 0.385 -0.68 0.297 -0.599 Q 0.261 -0.5670000000000001 0.233 -0.524 Q 0.157 -0.40900000000000003 0.14400000000000002 -0.249 Q 0.14200000000000002 -0.231 0.14200000000000002 -0.217 Q 0.14200000000000002 -0.089 0.219 -0.033 Q 0.259 -0.004 0.311 -0.004 Z"/></g></g><g transform="scale(31,31)"><g transform="translate(24.096774193548388,14.01658064516129)"><path fill="rgb(0,0,0)" stroke="none" paint-order="stroke fill markers" d=" M 0.661 -0.23 L 0.116 -0.23 Q 0.084 -0.23 0.083 -0.25 Q 0.083 -0.27 0.116 -0.27 L 0.661 -0.27 Q 0.6930000000000001 -0.27 0.6940000000000001 -0.25 Q 0.6940000000000001 -0.23 0.661 -0.23 Z"/></g><g transform="translate(24.874774193548387,14.01658064516129)"><path fill="rgb(0,0,0)" stroke="none" paint-order="stroke fill markers" d=" M 0.367 -0.4 L 0.367 -0.4 L 0.307 -0.083 Q 0.298 -0.021 0.271 0.059000000000000004 Q 0.261 0.088 0.251 0.108 Q 0.216 0.182 0.164 0.2 Q 0.151 0.20500000000000002 0.138 0.20500000000000002 Q 0.088 0.20500000000000002 0.064 0.171 Q 0.053 0.156 0.053 0.136 Q 0.053 0.096 0.08700000000000001 0.081 Q 0.097 0.076 0.108 0.076 Q 0.137 0.076 0.14400000000000002 0.101 Q 0.145 0.106 0.145 0.111 Q 0.145 0.145 0.115 0.159 Q 0.10400000000000001 0.164 0.09 0.165 Q 0.109 0.183 0.138 0.183 Q 0.182 0.183 0.20700000000000002 0.085 Q 0.212 0.062 0.219 0.025 L 0.225 -0.005 L 0.3 -0.4 L 0.234 -0.4 Q 0.209 -0.4 0.20700000000000002 -0.40800000000000003 L 0.20600000000000002 -0.40800000000000003 L 0.20600000000000002 -0.41200000000000003 Q 0.20600000000000002 -0.429 0.223 -0.431 L 0.223 -0.431 L 0.23600000000000002 -0.431 L 0.305 -0.431 Q 0.329 -0.556 0.338 -0.588 Q 0.368 -0.6880000000000001 0.444 -0.7030000000000001 Q 0.455 -0.705 0.465 -0.705 Q 0.517 -0.705 0.541 -0.671 L 0.541 -0.671 Q 0.552 -0.656 0.552 -0.636 Q 0.552 -0.596 0.518 -0.581 Q 0.508 -0.5760000000000001 0.497 -0.5760000000000001 Q 0.468 -0.5760000000000001 0.461 -0.601 Q 0.46 -0.606 0.46 -0.611 Q 0.46 -0.642 0.488 -0.657 Q 0.499 -0.664 0.514 -0.665 Q 0.495 -0.683 0.465 -0.683 Q 0.434 -0.683 0.418 -0.649 Q 0.41100000000000003 -0.635 0.394 -0.545 L 0.373 -0.431 L 0.456 -0.431 Q 0.481 -0.431 0.483 -0.42 Q 0.483 -0.402 0.467 -0.4 L 0.466 -0.4 L 0.453 -0.4 L 0.367 -0.4 Z"/></g></g><g transform="scale(31,31)"><g transform="translate(18.64516129032258,15.468193548387095)"><path fill="rgb(0,0,0)" stroke="none" paint-order="stroke fill markers" d=" M 0.367 -0.4 L 0.367 -0.4 L 0.307 -0.083 Q 0.298 -0.021 0.271 0.059000000000000004 Q 0.261 0.088 0.251 0.108 Q 0.216 0.182 0.164 0.2 Q 0.151 0.20500000000000002 0.138 0.20500000000000002 Q 0.088 0.20500000000000002 0.064 0.171 Q 0.053 0.156 0.053 0.136 Q 0.053 0.096 0.08700000000000001 0.081 Q 0.097 0.076 0.108 0.076 Q 0.137 0.076 0.14400000000000002 0.101 Q 0.145 0.106 0.145 0.111 Q 0.145 0.145 0.115 0.159 Q 0.10400000000000001 0.164 0.09 0.165 Q 0.109 0.183 0.138 0.183 Q 0.182 0.183 0.20700000000000002 0.085 Q 0.212 0.062 0.219 0.025 L 0.225 -0.005 L 0.3 -0.4 L 0.234 -0.4 Q 0.209 -0.4 0.20700000000000002 -0.40800000000000003 L 0.20600000000000002 -0.40800000000000003 L 0.20600000000000002 -0.41200000000000003 Q 0.20600000000000002 -0.429 0.223 -0.431 L 0.223 -0.431 L 0.23600000000000002 -0.431 L 0.305 -0.431 Q 0.329 -0.556 0.338 -0.588 Q 0.368 -0.6880000000000001 0.444 -0.7030000000000001 Q 0.455 -0.705 0.465 -0.705 Q 0.517 -0.705 0.541 -0.671 L 0.541 -0.671 Q 0.552 -0.656 0.552 -0.636 Q 0.552 -0.596 0.518 -0.581 Q 0.508 -0.5760000000000001 0.497 -0.5760000000000001 Q 0.468 -0.5760000000000001 0.461 -0.601 Q 0.46 -0.606 0.46 -0.611 Q 0.46 -0.642 0.488 -0.657 Q 0.499 -0.664 0.514 -0.665 Q 0.495 -0.683 0.465 -0.683 Q 0.434 -0.683 0.418 -0.649 Q 0.41100000000000003 -0.635 0.394 -0.545 L 0.373 -0.431 L 0.456 -0.431 Q 0.481 -0.431 0.483 -0.42 Q 0.483 -0.402 0.467 -0.4 L 0.466 -0.4 L 0.453 -0.4 L 0.367 -0.4 Z"/></g></g><g transform="scale(31,31)"><g transform="translate(27.580645161290324,13.00558064516129)"><path fill="rgb(0,0,0)" stroke="none" paint-order="stroke fill markers" d=" M 0.74 -0.436 L 0.74 -0.436 Q 0.74 -0.281 0.63 -0.149 Q 0.531 -0.029 0.398 0.009000000000000001 Q 0.35100000000000003 0.022 0.305 0.022 Q 0.18 0.022 0.108 -0.066 Q 0.049 -0.138 0.049 -0.245 Q 0.049 -0.395 0.156 -0.529 Q 0.255 -0.65 0.388 -0.6900000000000001 Q 0.437 -0.705 0.485 -0.705 Q 0.612 -0.705 0.684 -0.613 Q 0.74 -0.541 0.74 -0.436 M 0.311 -0.004 L 0.311 -0.004 Q 0.405 -0.004 0.492 -0.088 Q 0.51 -0.105 0.525 -0.124 Q 0.623 -0.246 0.646 -0.41500000000000004 Q 0.651 -0.448 0.651 -0.47500000000000003 Q 0.651 -0.612 0.559 -0.661 Q 0.558 -0.661 0.557 -0.662 Q 0.521 -0.68 0.47900000000000004 -0.68 Q 0.385 -0.68 0.297 -0.599 Q 0.261 -0.5670000000000001 0.233 -0.524 Q 0.157 -0.40900000000000003 0.14400000000000002 -0.249 Q 0.14200000000000002 -0.231 0.14200000000000002 -0.217 Q 0.14200000000000002 -0.089 0.219 -0.033 Q 0.259 -0.004 0.311 -0.004 Z"/></g><g transform="translate(28.343645161290326,13.15558064516129) scale(0.7,0.7)"><path fill="rgb(0,0,0)" stroke="none" paint-order="stroke fill markers" d=" M 0.47700000000000004 -0.23600000000000002 L 0.47700000000000004 -0.23600000000000002 L 0.47700000000000004 -0.17400000000000002 Q 0.542 -0.255 0.5750000000000001 -0.372 Q 0.585 -0.392 0.59 -0.393 Q 0.602 -0.393 0.602 -0.383 Q 0.602 -0.366 0.579 -0.307 Q 0.545 -0.221 0.487 -0.148 Q 0.47700000000000004 -0.128 0.47700000000000004 -0.113 Q 0.47700000000000004 -0.011 0.508 -0.011 Q 0.539 -0.011 0.558 -0.046 Q 0.561 -0.052000000000000005 0.5640000000000001 -0.06 Q 0.5680000000000001 -0.07 0.577 -0.07 Q 0.589 -0.07 0.589 -0.06 Q 0.589 -0.041 0.5640000000000001 -0.015 Q 0.538 0.011 0.505 0.011 Q 0.442 0.011 0.418 -0.058 Q 0.41600000000000004 -0.065 0.41400000000000003 -0.073 Q 0.309 0.011 0.203 0.011 Q 0.109 0.011 0.065 -0.064 Q 0.041 -0.105 0.041 -0.158 Q 0.041 -0.26 0.11900000000000001 -0.34700000000000003 Q 0.196 -0.433 0.293 -0.441 Q 0.302 -0.442 0.31 -0.442 Q 0.394 -0.442 0.44 -0.376 Q 0.44 -0.375 0.441 -0.375 Q 0.47700000000000004 -0.322 0.47700000000000004 -0.23600000000000002 M 0.41000000000000003 -0.099 L 0.41000000000000003 -0.099 Q 0.40800000000000003 -0.116 0.40800000000000003 -0.211 Q 0.40800000000000003 -0.334 0.381 -0.379 Q 0.369 -0.399 0.352 -0.40900000000000003 L 0.35100000000000003 -0.41000000000000003 L 0.35100000000000003 -0.41000000000000003 L 0.35000000000000003 -0.41000000000000003 Q 0.332 -0.42 0.309 -0.42 Q 0.23800000000000002 -0.42 0.181 -0.34 L 0.17300000000000001 -0.328 Q 0.137 -0.27 0.12 -0.166 Q 0.115 -0.138 0.115 -0.12 Q 0.115 -0.036000000000000004 0.17400000000000002 -0.016 Q 0.188 -0.011 0.20500000000000002 -0.011 Q 0.309 -0.011 0.41000000000000003 -0.099 Z"/></g></g><g transform="scale(31,31)"><g transform="translate(16.193548387096776,17.553967741935484)"><path fill="rgb(0,0,0)" stroke="none" paint-order="stroke fill markers" d=" M 0.74 -0.436 L 0.74 -0.436 Q 0.74 -0.281 0.63 -0.149 Q 0.531 -0.029 0.398 0.009000000000000001 Q 0.35100000000000003 0.022 0.305 0.022 Q 0.18 0.022 0.108 -0.066 Q 0.049 -0.138 0.049 -0.245 Q 0.049 -0.395 0.156 -0.529 Q 0.255 -0.65 0.388 -0.6900000000000001 Q 0.437 -0.705 0.485 -0.705 Q 0.612 -0.705 0.684 -0.613 Q 0.74 -0.541 0.74 -0.436 M 0.311 -0.004 L 0.311 -0.004 Q 0.405 -0.004 0.492 -0.088 Q 0.51 -0.105 0.525 -0.124 Q 0.623 -0.246 0.646 -0.41500000000000004 Q 0.651 -0.448 0.651 -0.47500000000000003 Q 0.651 -0.612 0.559 -0.661 Q 0.558 -0.661 0.557 -0.662 Q 0.521 -0.68 0.47900000000000004 -0.68 Q 0.385 -0.68 0.297 -0.599 Q 0.261 -0.5670000000000001 0.233 -0.524 Q 0.157 -0.40900000000000003 0.14400000000000002 -0.249 Q 0.14200000000000002 -0.231 0.14200000000000002 -0.217 Q 0.14200000000000002 -0.089 0.219 -0.033 Q 0.259 -0.004 0.311 -0.004 Z"/></g><g transform="translate(16.956548387096777,17.703967741935482) scale(0.7,0.7)"><path fill="rgb(0,0,0)" stroke="none" paint-order="stroke fill markers" d=" M 0.028 0.169 L 0.18 -0.437 Q 0.209 -0.551 0.292 -0.631 Q 0.37 -0.705 0.456 -0.705 Q 0.539 -0.705 0.5750000000000001 -0.639 Q 0.59 -0.611 0.59 -0.577 Q 0.59 -0.502 0.528 -0.439 Q 0.507 -0.418 0.482 -0.403 Q 0.549 -0.357 0.549 -0.264 Q 0.549 -0.161 0.46900000000000003 -0.076 Q 0.392 0.005 0.296 0.012 L 0.28300000000000003 0.012 Q 0.186 0.012 0.14100000000000001 -0.063 Q 0.129 -0.083 0.123 -0.105 L 0.048 0.188 L 0.047 0.19 Q 0.043000000000000003 0.194 0.037 0.194 Q 0.025 0.194 0.025 0.184 Q 0.025 0.181 0.028 0.169 M 0.328 -0.401 Q 0.34500000000000003 -0.395 0.371 -0.395 Q 0.401 -0.395 0.419 -0.403 Q 0.406 -0.40900000000000003 0.379 -0.40900000000000003 Q 0.34400000000000003 -0.40900000000000003 0.328 -0.401 M 0.45 -0.421 Q 0.511 -0.467 0.525 -0.577 L 0.525 -0.578 L 0.525 -0.58 Q 0.527 -0.594 0.527 -0.602 Q 0.527 -0.673 0.46900000000000003 -0.682 Q 0.462 -0.683 0.455 -0.683 Q 0.372 -0.683 0.299 -0.606 Q 0.23 -0.534 0.2 -0.41600000000000004 L 0.154 -0.231 Q 0.14100000000000001 -0.179 0.14100000000000001 -0.156 Q 0.14100000000000001 -0.074 0.2 -0.034 Q 0.234 -0.01 0.281 -0.01 Q 0.359 -0.01 0.41500000000000004 -0.094 Q 0.422 -0.10300000000000001 0.427 -0.113 Q 0.462 -0.179 0.47400000000000003 -0.274 Q 0.47600000000000003 -0.291 0.47600000000000003 -0.302 Q 0.47600000000000003 -0.355 0.446 -0.386 Q 0.41400000000000003 -0.373 0.371 -0.373 Q 0.303 -0.373 0.303 -0.399 Q 0.303 -0.431 0.381 -0.431 Q 0.422 -0.431 0.45 -0.421 Z"/></g></g><g transform="scale(31,31)"><g transform="translate(31.548387096774192,4.973322580645161)"><path fill="rgb(0,0,0)" stroke="none" paint-order="stroke fill markers" d=" M 0.303 -0.316 L 0.303 -0.316 L 0.241 -0.066 L 0.23800000000000002 -0.049 Q 0.23800000000000002 -0.032 0.28400000000000003 -0.031 L 0.28400000000000003 -0.031 L 0.28400000000000003 -0.031 L 0.303 -0.031 Q 0.329 -0.031 0.331 -0.02 Q 0.331 0 0.311 0 L 0.247 -0.002 L 0.246 -0.002 L 0.184 -0.003 L 0.182 -0.003 L 0.056 0 L 0.055 0 Q 0.04 0 0.04 -0.012 Q 0.04 -0.029 0.056 -0.031 L 0.068 -0.031 Q 0.133 -0.031 0.146 -0.045 Q 0.152 -0.052000000000000005 0.158 -0.073 Q 0.158 -0.074 0.159 -0.078 L 0.293 -0.615 Q 0.297 -0.631 0.297 -0.634 Q 0.297 -0.646 0.281 -0.649 L 0.28 -0.649 L 0.28 -0.649 Q 0.278 -0.65 0.275 -0.65 Q 0.251 -0.652 0.232 -0.652 Q 0.20600000000000002 -0.652 0.20400000000000001 -0.66 Q 0.203 -0.662 0.203 -0.664 Q 0.203 -0.681 0.22 -0.683 L 0.22 -0.683 L 0.233 -0.683 L 0.557 -0.683 Q 0.678 -0.683 0.73 -0.609 Q 0.754 -0.5740000000000001 0.754 -0.532 Q 0.754 -0.451 0.671 -0.385 Q 0.583 -0.316 0.47300000000000003 -0.316 L 0.303 -0.316 M 0.375 -0.614 L 0.307 -0.342 L 0.448 -0.342 Q 0.543 -0.342 0.602 -0.395 Q 0.643 -0.433 0.658 -0.522 L 0.658 -0.523 Q 0.661 -0.542 0.661 -0.556 Q 0.661 -0.652 0.525 -0.652 L 0.429 -0.652 Q 0.393 -0.652 0.385 -0.642 L 0.385 -0.642 L 0.385 -0.641 L 0.384 -0.641 L 0.384 -0.64 Q 0.38 -0.634 0.375 -0.614 Z"/></g><g transform="translate(32.190387096774195,5.123322580645161) scale(0.7,0.7)"><path fill="rgb(0,0,0)" stroke="none" paint-order="stroke fill markers" d=" M 0.486 -0.381 L 0.39 0.001 Q 0.366 0.099 0.28300000000000003 0.16 Q 0.222 0.20500000000000002 0.156 0.20500000000000002 Q 0.089 0.20500000000000002 0.061 0.159 Q 0.05 0.14 0.05 0.11800000000000001 Q 0.05 0.067 0.091 0.055 Q 0.099 0.053 0.106 0.053 Q 0.138 0.053 0.14200000000000002 0.081 Q 0.14300000000000002 0.084 0.14300000000000002 0.088 Q 0.14300000000000002 0.111 0.123 0.129 Q 0.109 0.14100000000000001 0.08 0.14100000000000001 Q 0.098 0.183 0.156 0.183 Q 0.218 0.183 0.266 0.12 Q 0.305 0.068 0.328 -0.021 Q 0.329 -0.025 0.331 -0.034 Q 0.28600000000000003 0.011 0.23 0.011 Q 0.15 0.011 0.121 -0.048 Q 0.108 -0.074 0.108 -0.108 Q 0.108 -0.163 0.161 -0.305 Q 0.163 -0.311 0.166 -0.318 Q 0.183 -0.364 0.183 -0.388 Q 0.183 -0.42 0.158 -0.42 Q 0.10300000000000001 -0.42 0.068 -0.329 L 0.068 -0.328 Q 0.062 -0.313 0.057 -0.296 Q 0.046 -0.279 0.041 -0.278 Q 0.029 -0.278 0.029 -0.28800000000000003 Q 0.029 -0.306 0.05 -0.35100000000000003 Q 0.094 -0.442 0.161 -0.442 Q 0.214 -0.442 0.23500000000000001 -0.397 Q 0.243 -0.38 0.243 -0.36 Q 0.243 -0.339 0.223 -0.28800000000000003 Q 0.17200000000000001 -0.156 0.17200000000000001 -0.092 Q 0.17200000000000001 -0.011 0.234 -0.011 Q 0.292 -0.011 0.335 -0.073 Q 0.34500000000000003 -0.088 0.34700000000000003 -0.096 L 0.392 -0.276 Q 0.399 -0.309 0.41200000000000003 -0.356 Q 0.422 -0.399 0.426 -0.41000000000000003 Q 0.439 -0.431 0.461 -0.431 Q 0.486 -0.426 0.49 -0.404 Q 0.49 -0.395 0.486 -0.381 Z"/></g></g><g transform="scale(31,31)"><g transform="translate(31.225806451612904,11.908806451612904)"><path fill="rgb(0,0,0)" stroke="none" paint-order="stroke fill markers" d=" M 0.74 -0.436 L 0.74 -0.436 Q 0.74 -0.281 0.63 -0.149 Q 0.531 -0.029 0.398 0.009000000000000001 Q 0.35100000000000003 0.022 0.305 0.022 Q 0.18 0.022 0.108 -0.066 Q 0.049 -0.138 0.049 -0.245 Q 0.049 -0.395 0.156 -0.529 Q 0.255 -0.65 0.388 -0.6900000000000001 Q 0.437 -0.705 0.485 -0.705 Q 0.612 -0.705 0.684 -0.613 Q 0.74 -0.541 0.74 -0.436 M 0.311 -0.004 L 0.311 -0.004 Q 0.405 -0.004 0.492 -0.088 Q 0.51 -0.105 0.525 -0.124 Q 0.623 -0.246 0.646 -0.41500000000000004 Q 0.651 -0.448 0.651 -0.47500000000000003 Q 0.651 -0.612 0.559 -0.661 Q 0.558 -0.661 0.557 -0.662 Q 0.521 -0.68 0.47900000000000004 -0.68 Q 0.385 -0.68 0.297 -0.599 Q 0.261 -0.5670000000000001 0.233 -0.524 Q 0.157 -0.40900000000000003 0.14400000000000002 -0.249 Q 0.14200000000000002 -0.231 0.14200000000000002 -0.217 Q 0.14200000000000002 -0.089 0.219 -0.033 Q 0.259 -0.004 0.311 -0.004 Z"/></g><g transform="translate(31.988806451612906,12.058806451612904) scale(0.7,0.7)"><path fill="rgb(0,0,0)" stroke="none" paint-order="stroke fill markers" d=" M 0.045 0.122 L 0.045 0.122 L 0.157 -0.323 Q 0.164 -0.353 0.164 -0.374 Q 0.164 -0.42 0.133 -0.42 Q 0.092 -0.42 0.066 -0.325 Q 0.063 -0.314 0.06 -0.301 Q 0.049 -0.279 0.043000000000000003 -0.278 Q 0.031 -0.278 0.031 -0.28800000000000003 Q 0.031 -0.304 0.049 -0.355 Q 0.056 -0.373 0.062 -0.385 Q 0.08600000000000001 -0.434 0.122 -0.441 Q 0.129 -0.442 0.136 -0.442 Q 0.19 -0.442 0.215 -0.398 L 0.215 -0.397 Q 0.223 -0.384 0.226 -0.367 Q 0.289 -0.442 0.357 -0.442 Q 0.428 -0.442 0.466 -0.378 Q 0.488 -0.333 0.49 -0.28200000000000003 Q 0.49 -0.17400000000000002 0.41400000000000003 -0.082 Q 0.34500000000000003 0.002 0.263 0.01 Q 0.256 0.011 0.249 0.011 Q 0.186 0.011 0.157 -0.053 Q 0.12 0.079 0.109 0.14100000000000001 Q 0.108 0.146 0.108 0.147 Q 0.108 0.158 0.121 0.161 L 0.122 0.161 L 0.122 0.161 Q 0.134 0.163 0.158 0.163 Q 0.18 0.163 0.182 0.17400000000000002 Q 0.182 0.194 0.164 0.194 L 0.066 0.191 L 0.065 0.191 L -0.017 0.194 L -0.019 0.194 Q -0.032 0.194 -0.032 0.182 Q -0.026000000000000002 0.164 -0.009000000000000001 0.163 Q 0.028 0.163 0.036000000000000004 0.15 L 0.037 0.149 Q 0.039 0.145 0.041 0.138 Q 0.042 0.133 0.045 0.122 M 0.221 -0.312 L 0.221 -0.312 L 0.17200000000000001 -0.116 Q 0.169 -0.10400000000000001 0.169 -0.1 Q 0.169 -0.077 0.187 -0.048 Q 0.198 -0.029 0.215 -0.019 Q 0.23 -0.011 0.248 -0.011 Q 0.299 -0.011 0.34400000000000003 -0.075 Q 0.357 -0.093 0.367 -0.114 Q 0.394 -0.171 0.41200000000000003 -0.268 Q 0.418 -0.303 0.418 -0.326 Q 0.418 -0.405 0.37 -0.418 Q 0.362 -0.42 0.354 -0.42 Q 0.316 -0.42 0.273 -0.382 Q 0.23 -0.34600000000000003 0.221 -0.312 Z"/></g></g></g></g></svg>