<svg version="1.1" xmlns="http://www.w3.org/2000/svg" xmlns:xlink="http://www.w3.org/1999/xlink" width="701" height="628"><defs><clipPath id="VsofdRdTWVsF"><path fill="none" stroke="none" d=" M 0 0 L 701 0 L 701 628 L 0 628 L 0 0 Z"/></clipPath></defs><g transform="scale(1,1)" clip-path="url(#VsofdRdTWVsF)"><g transform="translate(-585.7355516725964,-239.48587857003457)"><rect fill="rgb(255,255,255)" stroke="none" x="0" y="0" width="1433" height="1149" fill-opacity="1"/><path fill="none" stroke="rgb(192,192,192)" paint-order="fill stroke markers" d=" M 75.5 0.5 L 75.5 1149.5 M 75.5 0.5 L 75.5 1149.5 M 170.5 0.5 L 170.5 1149.5 M 266.5 0.5 L 266.5 1149.5 M 361.5 0.5 L 361.5 1149.5 M 456.5 0.5 L 456.5 1149.5 M 552.5 0.5 L 552.5 1149.5 M 647.5 0.5 L 647.5 1149.5 M 743.5 0.5 L 743.5 1149.5 M 838.5 0.5 L 838.5 1149.5 M 934.5 0.5 L 934.5 1149.5 M 1029.5 0.5 L 1029.5 1149.5 M 1124.5 0.5 L 1124.5 1149.5 M 1220.5 0.5 L 1220.5 1149.5 M 1315.5 0.5 L 1315.5 1149.5 M 1411.5 0.5 L 1411.5 1149.5" stroke-opacity="1" stroke-linecap="round" stroke-linejoin="round" stroke-miterlimit="10"/><path fill="none" stroke="rgb(192,192,192)" paint-order="fill stroke markers" d=" M 17.5 0.5 L 17.5 1149.5 M 37.5 0.5 L 37.5 1149.5 M 56.5 0.5 L 56.5 1149.5 M 94.5 0.5 L 94.5 1149.5 M 113.5 0.5 L 113.5 1149.5 M 132.5 0.5 L 132.5 1149.5 M 151.5 0.5 L 151.5 1149.5 M 189.5 0.5 L 189.5 1149.5 M 208.5 0.5 L 208.5 1149.5 M 227.5 0.5 L 227.5 1149.5 M 246.5 0.5 L 246.5 1149.5 M 285.5 0.5 L 285.5 1149.5 M 304.5 0.5 L 304.5 1149.5 M 323.5 0.5 L 323.5 1149.5 M 342.5 0.5 L 342.5 1149.5 M 380.5 0.5 L 380.5 1149.5 M 399.5 0.5 L 399.5 1149.5 M 418.5 0.5 L 418.5 1149.5 M 437.5 0.5 L 437.5 1149.5 M 476.5 0.5 L 476.5 1149.5 M 495.5 0.5 L 495.5 1149.5 M 514.5 0.5 L 514.5 1149.5 M 533.5 0.5 L 533.5 1149.5 M 571.5 0.5 L 571.5 1149.5 M 590.5 0.5 L 590.5 1149.5 M 609.5 0.5 L 609.5 1149.5 M 628.5 0.5 L 628.5 1149.5 M 666.5 0.5 L 666.5 1149.5 M 685.5 0.5 L 685.5 1149.5 M 705.5 0.5 L 705.5 1149.5 M 724.5 0.5 L 724.5 1149.5 M 762.5 0.5 L 762.5 1149.5 M 781.5 0.5 L 781.5 1149.5 M 800.5 0.5 L 800.5 1149.5 M 819.5 0.5 L 819.5 1149.5 M 857.5 0.5 L 857.5 1149.5 M 876.5 0.5 L 876.5 1149.5 M 895.5 0.5 L 895.5 1149.5 M 914.5 0.5 L 914.5 1149.5 M 953.5 0.5 L 953.5 1149.5 M 972.5 0.5 L 972.5 1149.5 M 991.5 0.5 L 991.5 1149.5 M 1010.5 0.5 L 1010.5 1149.5 M 1048.5 0.5 L 1048.5 1149.5 M 1067.5 0.5 L 1067.5 1149.5 M 1086.5 0.5 L 1086.5 1149.5 M 1105.5 0.5 L 1105.5 1149.5 M 1143.5 0.5 L 1143.5 1149.5 M 1163.5 0.5 L 1163.5 1149.5 M 1182.5 0.5 L 1182.5 1149.5 M 1201.5 0.5 L 1201.5 1149.5 M 1239.5 0.5 L 1239.5 1149.5 M 1258.5 0.5 L 1258.5 1149.5 M 1277.5 0.5 L 1277.5 1149.5 M 1296.5 0.5 L 1296.5 1149.5 M 1334.5 0.5 L 1334.5 1149.5 M 1353.5 0.5 L 1353.5 1149.5 M 1372.5 0.5 L 1372.5 1149.5 M 1392.5 0.5 L 1392.5 1149.5 M 1430.5 0.5 L 1430.5 1149.5" stroke-opacity="0.23529411764705882" stroke-linecap="round" stroke-linejoin="round" stroke-miterlimit="10"/><path fill="none" stroke="rgb(192,192,192)" paint-order="fill stroke markers" d=" M 0.5 51.5 L 1433.5 51.5 M 0.5 51.5 L 1433.5 51.5 M 0.5 146.5 L 1433.5 146.5 M 0.5 242.5 L 1433.5 242.5 M 0.5 337.5 L 1433.5 337.5 M 0.5 433.5 L 1433.5 433.5 M 0.5 528.5 L 1433.5 528.5 M 0.5 624.5 L 1433.5 624.5 M 0.5 719.5 L 1433.5 719.5 M 0.5 814.5 L 1433.5 814.5 M 0.5 910.5 L 1433.5 910.5 M 0.5 1005.5 L 1433.5 1005.5 M 0.5 1101.5 L 1433.5 1101.5" stroke-opacity="1" stroke-linecap="round" stroke-linejoin="round" stroke-miterlimit="10"/><path fill="none" stroke="rgb(192,192,192)" paint-order="fill stroke markers" d=" M 0.5 13.5 L 1433.5 13.5 M 0.5 13.5 L 1433.5 13.5 M 0.5 32.5 L 1433.5 32.5 M 0.5 70.5 L 1433.5 70.5 M 0.5 89.5 L 1433.5 89.5 M 0.5 108.5 L 1433.5 108.5 M 0.5 127.5 L 1433.5 127.5 M 0.5 166.5 L 1433.5 166.5 M 0.5 185.5 L 1433.5 185.5 M 0.5 204.5 L 1433.5 204.5 M 0.5 223.5 L 1433.5 223.5 M 0.5 261.5 L 1433.5 261.5 M 0.5 280.5 L 1433.5 280.5 M 0.5 299.5 L 1433.5 299.5 M 0.5 318.5 L 1433.5 318.5 M 0.5 356.5 L 1433.5 356.5 M 0.5 375.5 L 1433.5 375.5 M 0.5 395.5 L 1433.5 395.5 M 0.5 414.5 L 1433.5 414.5 M 0.5 452.5 L 1433.5 452.5 M 0.5 471.5 L 1433.5 471.5 M 0.5 490.5 L 1433.5 490.5 M 0.5 509.5 L 1433.5 509.5 M 0.5 547.5 L 1433.5 547.5 M 0.5 566.5 L 1433.5 566.5 M 0.5 585.5 L 1433.5 585.5 M 0.5 604.5 L 1433.5 604.5 M 0.5 643.5 L 1433.5 643.5 M 0.5 662.5 L 1433.5 662.5 M 0.5 681.5 L 1433.5 681.5 M 0.5 700.5 L 1433.5 700.5 M 0.5 738.5 L 1433.5 738.5 M 0.5 757.5 L 1433.5 757.5 M 0.5 776.5 L 1433.5 776.5 M 0.5 795.5 L 1433.5 795.5 M 0.5 833.5 L 1433.5 833.5 M 0.5 853.5 L 1433.5 853.5 M 0.5 872.5 L 1433.5 872.5 M 0.5 891.5 L 1433.5 891.5 M 0.5 929.5 L 1433.5 929.5 M 0.5 948.5 L 1433.5 948.5 M 0.5 967.5 L 1433.5 967.5 M 0.5 986.5 L 1433.5 986.5 M 0.5 1024.5 L 1433.5 1024.5 M 0.5 1043.5 L 1433.5 1043.5 M 0.5 1062.5 L 1433.5 1062.5 M 0.5 1082.5 L 1433.5 1082.5 M 0.5 1120.5 L 1433.5 1120.5 M 0.5 1139.5 L 1433.5 1139.5" stroke-opacity="0.23529411764705882" stroke-linecap="round" stroke-linejoin="round" stroke-miterlimit="10"/><path fill="rgb(21,101,192)" stroke="none" paint-order="stroke fill markers" fill-rule="evenodd" d=" M 604.3426369842169 333.47551463129724 L 813.7916229278429 408.85806538093937 L 813.3145181762629 866.4015221461724 L 606.728160742117 783.3852953712501 L 604.3426369842169 333.47551463129724 Z" fill-opacity="0.09803921568627451"/><path fill="rgb(21,101,192)" stroke="none" paint-order="stroke fill markers" fill-rule="evenodd" d=" M 1167.803348600213 759.0529530406693 L 959.3085721597471 679.8535642783871 L 961.2169911660671 239.48587857003457 L 1172.574396116013 311.5286960586166 L 1167.803348600213 759.0529530406693 Z" fill-opacity="0.09803921568627451"/><path fill="none" stroke="rgb(21,101,192)" paint-order="fill stroke markers" d=" M 604.3426369842169 333.47551463129724 L 813.7916229278429 408.85806538093937" stroke-opacity="0.6980392156862745" stroke-linecap="round" stroke-linejoin="round" stroke-miterlimit="10"/><path fill="none" stroke="rgb(21,101,192)" paint-order="fill stroke markers" d=" M 813.7916229278429 408.85806538093937 L 813.3145181762629 866.4015221461724" stroke-opacity="0.6980392156862745" stroke-linecap="round" stroke-linejoin="round" stroke-miterlimit="10"/><path fill="none" stroke="rgb(46,125,50)" paint-order="fill stroke markers" d=" M 1065.22582701051 364.9644282355781 L 960.2627816629071 473.7443115958212" stroke-opacity="0.6980392156862745" stroke-linejoin="round" stroke-miterlimit="10" stroke-width="1.5" stroke-dasharray="9.5,8"/><path fill="none" stroke="rgb(46,125,50)" paint-order="fill stroke markers" d=" M 960.2627816629071 473.7443115958212 L 813.7916229278429 625.9407273498456" stroke-opacity="0.6980392156862745" stroke-linejoin="round" stroke-miterlimit="10" stroke-width="1.5" stroke-dasharray="9.5,8"/><path fill="none" stroke="rgb(46,125,50)" paint-order="fill stroke markers" d=" M 813.7916229278429 625.9407273498456 L 708.8285775802399 734.7206107100886" stroke-opacity="0.6980392156862745" stroke-linejoin="round" stroke-miterlimit="10" stroke-width="1.5" stroke-dasharray="9.5,8"/><path fill="none" stroke="rgb(211,47,47)" paint-order="fill stroke markers" d=" M 1285.1711174888965 503.3248061937821 L 1170.188872358113 516.2066344864425" stroke-opacity="0.6980392156862745" stroke-linejoin="round" stroke-miterlimit="10" stroke-width="1.5" stroke-dasharray="9.5,8"/><path fill="none" stroke="rgb(211,47,47)" paint-order="fill stroke markers" d=" M 1170.188872358113 516.2066344864425 L 1127.7265494674919 521.4547867538225" stroke-opacity="0.6980392156862745" stroke-linejoin="round" stroke-miterlimit="10" stroke-width="1.5" stroke-dasharray="9.5,8"/><path fill="none" stroke="rgb(211,47,47)" paint-order="fill stroke markers" d=" M 1127.7265494674919 521.4547867538225 L 959.7856769113271 540.0618720654431" stroke-opacity="0.6980392156862745" stroke-linejoin="round" stroke-miterlimit="10" stroke-width="1.5" stroke-dasharray="9.5,8"/><path fill="none" stroke="rgb(211,47,47)" paint-order="fill stroke markers" d=" M 959.7856769113271 540.0618720654431 L 813.7916229278429 556.7605383707436" stroke-opacity="0.6980392156862745" stroke-linejoin="round" stroke-miterlimit="10" stroke-width="1.5" stroke-dasharray="9.5,8"/><path fill="none" stroke="rgb(211,47,47)" paint-order="fill stroke markers" d=" M 813.7916229278429 556.7605383707436 L 646.3278551232581 575.3676236823641" stroke-opacity="0.6980392156862745" stroke-linejoin="round" stroke-miterlimit="10" stroke-width="1.5" stroke-dasharray="9.5,8"/><path fill="none" stroke="rgb(21,101,192)" paint-order="fill stroke markers" d=" M 813.3145181762629 866.4015221461724 L 606.728160742117 783.3852953712501" stroke-opacity="0.6980392156862745" stroke-linecap="round" stroke-linejoin="round" stroke-miterlimit="10"/><path fill="none" stroke="rgb(211,47,47)" paint-order="fill stroke markers" d=" M 633.4460268305977 454.1830167810407 L 813.7916229278429 520.5005772506626" stroke-opacity="0.6980392156862745" stroke-linejoin="round" stroke-miterlimit="10" stroke-width="1.5" stroke-dasharray="9.5,8"/><path fill="none" stroke="rgb(211,47,47)" paint-order="fill stroke markers" d=" M 813.7916229278429 520.5005772506626 L 959.7856769113271 574.4134141792041" stroke-opacity="0.6980392156862745" stroke-linecap="round" stroke-linejoin="round" stroke-miterlimit="10" stroke-width="1.5"/><path fill="none" stroke="rgb(211,47,47)" paint-order="fill stroke markers" d=" M 959.7856769113271 574.4134141792041 L 1168.757558103373 651.7043839351663" stroke-opacity="0.6980392156862745" stroke-linecap="round" stroke-linejoin="round" stroke-miterlimit="10" stroke-width="1.5"/><path fill="none" stroke="rgb(21,101,192)" paint-order="fill stroke markers" d=" M 606.728160742117 783.3852953712501 L 604.3426369842169 333.47551463129724" stroke-opacity="0.6980392156862745" stroke-linecap="round" stroke-linejoin="round" stroke-miterlimit="10"/><path fill="none" stroke="rgb(0,51,204)" paint-order="fill stroke markers" d=" M 1170.6659771096931 468.4961593284411 L 1064.2716175073501 498.55375867798193" stroke-opacity="0.6980392156862745" stroke-linejoin="round" stroke-miterlimit="10" stroke-width="1.5" stroke-dasharray="9.5,8"/><path fill="none" stroke="rgb(0,51,204)" paint-order="fill stroke markers" d=" M 1064.2716175073501 498.55375867798193 L 959.7856769113271 528.1342532759428" stroke-opacity="0.6980392156862745" stroke-linecap="round" stroke-linejoin="round" stroke-miterlimit="10" stroke-width="1.5"/><path fill="none" stroke="rgb(0,51,204)" paint-order="fill stroke markers" d=" M 959.7856769113271 528.1342532759428 L 813.7916229278429 569.6423666634039" stroke-opacity="0.6980392156862745" stroke-linecap="round" stroke-linejoin="round" stroke-miterlimit="10" stroke-width="1.5"/><path fill="none" stroke="rgb(0,51,204)" paint-order="fill stroke markers" d=" M 813.7916229278429 569.6423666634039 L 708.3514728286599 599.2228612613648" stroke-opacity="0.6980392156862745" stroke-linejoin="round" stroke-miterlimit="10" stroke-width="1.5" stroke-dasharray="9.5,8"/><path fill="none" stroke="rgb(0,51,204)" paint-order="fill stroke markers" d=" M 708.3514728286599 599.2228612613648 L 605.773951238957 628.3262511077456" stroke-opacity="0.6980392156862745" stroke-linecap="round" stroke-linejoin="round" stroke-miterlimit="10" stroke-width="1.5"/><path fill="none" stroke="rgb(21,101,192)" paint-order="fill stroke markers" d=" M 1167.803348600213 759.0529530406693 L 959.3085721597471 679.8535642783871" stroke-opacity="0.6980392156862745" stroke-linecap="round" stroke-linejoin="round" stroke-miterlimit="10"/><path fill="none" stroke="rgb(21,101,192)" paint-order="fill stroke markers" d=" M 959.3085721597471 679.8535642783871 L 961.2169911660671 239.48587857003457" stroke-opacity="0.6980392156862745" stroke-linecap="round" stroke-linejoin="round" stroke-miterlimit="10"/><path fill="none" stroke="rgb(21,101,192)" paint-order="fill stroke markers" d=" M 961.2169911660671 239.48587857003457 L 1172.574396116013 311.5286960586166" stroke-opacity="0.6980392156862745" stroke-linecap="round" stroke-linejoin="round" stroke-miterlimit="10"/><path fill="none" stroke="rgb(21,101,192)" paint-order="fill stroke markers" d=" M 1172.574396116013 311.5286960586166 L 1167.803348600213 759.0529530406693" stroke-opacity="0.6980392156862745" stroke-linecap="round" stroke-linejoin="round" stroke-miterlimit="10"/><path fill="none" stroke="rgb(46,125,50)" paint-order="fill stroke markers" d=" M 1181.1622816444533 244.25692608583466 L 1130.589177976972 297.21555351121617" stroke-opacity="0.6980392156862745" stroke-linejoin="round" stroke-miterlimit="10" stroke-width="1.5" stroke-dasharray="9.5,8"/><path fill="none" stroke="rgb(46,125,50)" paint-order="fill stroke markers" d=" M 1130.589177976972 297.21555351121617 L 1065.22582701051 364.9644282355781" stroke-opacity="0.6980392156862745" stroke-linejoin="round" stroke-miterlimit="10" stroke-width="1.5" stroke-dasharray="9.5,8"/><path fill="none" stroke="rgb(21,101,192)" paint-order="fill stroke markers" d=" M 604.3426369842169 333.47551463129724 L 813.7916229278429 408.85806538093937" stroke-opacity="0.6980392156862745" stroke-linecap="round" stroke-linejoin="round" stroke-miterlimit="10"/><path fill="none" stroke="rgb(21,101,192)" paint-order="fill stroke markers" d=" M 813.7916229278429 408.85806538093937 L 813.3145181762629 866.4015221461724" stroke-opacity="0.6980392156862745" stroke-linecap="round" stroke-linejoin="round" stroke-miterlimit="10"/><path fill="none" stroke="rgb(21,101,192)" paint-order="fill stroke markers" d=" M 813.3145181762629 866.4015221461724 L 606.728160742117 783.3852953712501" stroke-opacity="0.6980392156862745" stroke-linecap="round" stroke-linejoin="round" stroke-miterlimit="10"/><path fill="none" stroke="rgb(21,101,192)" paint-order="fill stroke markers" d=" M 606.728160742117 783.3852953712501 L 604.3426369842169 333.47551463129724" stroke-opacity="0.6980392156862745" stroke-linecap="round" stroke-linejoin="round" stroke-miterlimit="10"/><path fill="none" stroke="rgb(21,101,192)" paint-order="fill stroke markers" d=" M 604.3426369842169 333.47551463129724 L 604.3426369842169 333.47551463129724" stroke-opacity="0.6980392156862745" stroke-linecap="round" stroke-linejoin="round" stroke-miterlimit="10"/><path fill="none" stroke="rgb(21,101,192)" paint-order="fill stroke markers" d=" M 1167.803348600213 759.0529530406693 L 959.3085721597471 679.8535642783871" stroke-opacity="0.6980392156862745" stroke-linecap="round" stroke-linejoin="round" stroke-miterlimit="10"/><path fill="none" stroke="rgb(21,101,192)" paint-order="fill stroke markers" d=" M 959.3085721597471 679.8535642783871 L 961.2169911660671 239.48587857003457" stroke-opacity="0.6980392156862745" stroke-linecap="round" stroke-linejoin="round" stroke-miterlimit="10"/><path fill="none" stroke="rgb(21,101,192)" paint-order="fill stroke markers" d=" M 961.2169911660671 239.48587857003457 L 1172.574396116013 311.5286960586166" stroke-opacity="0.6980392156862745" stroke-linecap="round" stroke-linejoin="round" stroke-miterlimit="10"/><path fill="none" stroke="rgb(21,101,192)" paint-order="fill stroke markers" d=" M 1172.574396116013 311.5286960586166 L 1167.803348600213 759.0529530406693" stroke-opacity="0.6980392156862745" stroke-linecap="round" stroke-linejoin="round" stroke-miterlimit="10"/><path fill="none" stroke="rgb(21,101,192)" paint-order="fill stroke markers" d=" M 1167.803348600213 759.0529530406693 L 1167.803348600213 759.0529530406693" stroke-opacity="0.6980392156862745" stroke-linecap="round" stroke-linejoin="round" stroke-miterlimit="10"/><path fill="none" stroke="rgb(0,51,204)" paint-order="fill stroke markers" d=" M 605.773951238957 628.3262511077456 L 585.7355516725964 634.0515081267058" stroke-opacity="0.6980392156862745" stroke-linecap="round" stroke-linejoin="round" stroke-miterlimit="10" stroke-width="1.5"/><path fill="rgb(46,125,50)" stroke="none" paint-order="stroke fill markers" d=" M 1065.22582701051 364.9644282355781 L 1061.1116462484765 380.9354493881943 L 1064.1115697207947 380.95687741299656 L 1064.1115697207927 380.95687741299656 L 1063.271643016578 498.54661600304786 C 1063.267698226139 499.09888666452105 1063.7122041709429 499.5497883783149 1064.264474832416 499.553733168754 C 1064.2669079245693 499.55375054798367 1064.2693390492072 499.5537592230324 1064.2717681767786 499.5537592230324 C 1064.8207098178066 499.55375922303233 1065.2676645869126 499.110738922236 1065.2715919981222 498.560901352916 L 1066.1115187023368 380.97116276286476 L 1066.1115187023427 380.97116276286476 L 1069.111442174653 380.992590787667 L 1065.22582701051 364.9644282355781 Z" fill-opacity="0.6980392156862745"/><path fill="rgb(211,47,47)" stroke="none" paint-order="stroke fill markers" d=" M 1064.2716732770816 497.5534863460809 C 1063.8621894899388 497.5534863460809 1063.4780237307345 497.80691215622824 1063.3310008660542 498.2142880104466 C 1063.1435163933595 498.73377623687145 1063.4126586133898 499.3068908465833 1063.9321468398148 499.494375319278 L 1112.3372125392198 516.9638727145519 L 1111.3188005366135 519.7857226384401 L 1127.7265494674919 521.4547867538225 L 1114.0345658768967 512.2607895080716 L 1113.0161538742905 515.0826394319598 L 1064.6110881748855 497.6131420366859 C 1064.498975802679 497.5726804286715 1064.384365765557 497.5534863460809 1064.2716732770816 497.5534863460809 Z" fill-opacity="0.6980392156862745"/><path fill="rgb(46,125,50)" stroke="none" paint-order="stroke fill markers" d=" M 708.3515485635636 598.2228611271887 C 708.3503501050799 598.2228611271887 708.349151157292 598.2228632371163 708.3479517237272 598.2228674604739 C 707.7956703975699 598.2248121130308 707.3495343752122 598.6741010401402 707.3514790277691 599.2263823662975 L 707.7722461004256 718.7242310007683 C 707.772246100426 718.7242310008514 707.7722461004263 718.7242310009345 707.7722461004266 718.7242310010175 L 707.7722460296524 718.7242310010175 L 704.7722646977531 718.7347943155664 L 708.8285775802399 734.7206107100886 L 712.7722151048797 718.7066254761049 L 712.7722151048474 718.7066254761049 L 709.7722337022072 718.7171887909029 L 709.3514666295507 599.219340156432 C 709.3495262003515 598.6682582638396 708.9021824533827 598.2228611271888 708.3515485635636 598.2228611271887 Z" fill-opacity="0.6980392156862745"/><path fill="rgb(211,47,47)" stroke="none" paint-order="stroke fill markers" d=" M 646.3278551232582 575.3676236823642 L 659.8254685052716 584.8446713761182 L 660.9024057431983 582.044634557509 L 707.9924937493511 600.1562068675678 C 708.1105469858794 600.2016119585402 708.2319109090404 600.2231307680967 708.35125870715 600.2231307680967 C 708.753036081009 600.2231307680967 709.1319648548248 599.9792596487728 709.2848184348629 599.5818403406736 C 709.4830771058735 599.066367796046 709.2259244525962 598.4877743261723 708.7104519079687 598.2895156551617 L 661.6203639018163 580.177943345103 L 661.620363901816 580.177943345103 L 662.6973011397426 577.3779065264937 L 646.327855123259 575.3676236823642 Z" fill-opacity="0.6980392156862745"/><path fill="rgb(46,125,50)" stroke="none" paint-order="stroke fill markers" d=" M 1181.1622816444533 244.25692608583466 L 1176.9904797992265 260.21299293716623 L 1179.9903063838137 260.2452491370005 L 1179.9903063838099 260.2452491370005 L 1177.7768156916923 466.09988350392956 C 1177.7708774892735 466.6521363288636 1178.2137529950076 467.1046395629833 1178.7660058199417 467.11057776540196 C 1178.7696684020857 467.11061714800564 1178.773326596802 467.11063678979934 1178.7769803029216 467.11063678979934 C 1179.3242410737291 467.11063678979934 1179.7708012615992 466.66997787994245 1179.7767000814142 466.1213876371524 L 1181.9901907735318 260.26675327022326 L 1181.9901907735332 260.26675327022326 L 1184.9900173581152 260.29900947005746 L 1181.1622816444533 244.25692608583466 Z" fill-opacity="0.6980392156862745"/><path fill="rgb(211,47,47)" stroke="none" paint-order="stroke fill markers" d=" M 1178.7767357071527 465.1103630714668 C 1178.3635719213287 465.1103630714668 1177.976965422343 465.36840439370496 1177.8328335581245 465.78047369781706 C 1177.6504901908436 466.30178870940244 1177.925281002244 466.8722165316886 1178.4465960138293 467.0545598989696 L 1269.7381663613146 498.9861405586281 L 1268.7476807431428 501.81791354391396 L 1285.1711174888965 503.3248061937821 L 1271.3889757249342 494.266518916485 L 1270.3984901067624 497.09829190177084 L 1179.1069197592772 465.16671124211234 C 1178.9976740518039 465.1284997390499 1178.8862715780226 465.1103630714668 1178.7767357071527 465.1103630714668 Z" fill-opacity="0.6980392156862745"/><path fill="rgb(211,47,47)" stroke="none" paint-order="stroke fill markers" d=" M 1168.7576504738954 650.9541802719517 C 1168.452963649346 650.9541802719518 1168.1664725523126 651.1412278501322 1168.0543418911982 651.4436408452589 C 1167.9103374590186 651.8320164350768 1168.1084394236475 652.2635957151615 1168.4968150134655 652.4076001473411 L 1196.8948136605904 662.9371951513313 L 1195.8518413009604 665.7500600000305 L 1211.2198809939941 667.4488407373067 L 1198.4592722000355 658.7178978782824 L 1197.4162998404054 661.5307627269817 L 1169.0183011932804 651.0011677229916 C 1168.9323385985892 650.9692939519263 1168.8442594173885 650.9541802719517 1168.7576504738954 650.9541802719517 Z" fill-opacity="0.6980392156862745"/><path fill="rgb(0,51,204)" stroke="none" paint-order="stroke fill markers" d=" M 1235.5522233245733 449.8890740168206 L 1220.0996672622443 450.41917885600856 L 1220.9266308113777 453.30294918119137 L 1170.4592362224098 467.7752167471454 C 1170.0610706292566 467.8893965863585 1169.8308546891844 468.3047346225712 1169.9450345283974 468.7029002157244 C 1170.0394067255475 469.03199300578603 1170.3395119263864 469.2463527852867 1170.6656111147856 469.2463527852868 C 1170.7340555952144 469.2463527852868 1170.803645193885 469.2369095517998 1170.8727179969765 469.21710190973675 L 1221.3401125859443 454.7448343437827 L 1222.1670761350777 457.6286046689655 L 1235.552223324575 449.8890740168206 Z" fill-opacity="0.6980392156862745"/><path fill="rgb(0,204,0)" stroke="none" paint-order="stroke fill markers" d=" M 889.174139098299 321.75210530803105 C 888.7606741888337 321.75210530803105 888.4250555219965 322.0868405531825 888.42417537508 322.50050960388796 L 887.5018806932989 755.9790100409999 L 887.5018806932882 755.9790100409999 L 884.5018874837322 755.9726270767243 L 884.5018874836787 755.9726270767243 L 888.219964174325 770.9805718301697 L 892.0018705077291 755.9885844874136 L 889.0018773869784 755.9822015233269 L 889.0018772981086 755.9822015233269 C 889.0018772981088 755.9822015232638 889.0018772981089 755.9822015232008 889.001877298109 755.9822015231379 L 889.9241719798902 322.5037010860259 C 889.9250532833472 322.0894884612086 889.5899820433714 321.7529883460089 889.1757694185541 321.75210704255187 C 889.1752258444421 321.7521058860112 889.1746824041628 321.75210530803105 889.174139098299 321.75210530803105 Z" fill-opacity="0.6980392156862745"/><path fill="rgb(97,97,97)" stroke="none" paint-order="stroke fill markers" d=" M 1184.1622816444533 244.25692608583466 C 1184.1622816444533 245.91378033532703 1182.8191358939457 247.25692608583466 1181.1622816444533 247.25692608583466 C 1179.5054273949609 247.25692608583466 1178.1622816444533 245.91378033532703 1178.1622816444533 244.25692608583466 C 1178.1622816444533 242.6000718363423 1179.5054273949609 241.25692608583466 1181.1622816444533 241.25692608583466 C 1182.8191358939457 241.25692608583466 1184.1622816444533 242.6000718363423 1184.1622816444533 244.25692608583466 Z" fill-opacity="1"/><path fill="none" stroke="rgb(0,0,0)" paint-order="fill stroke markers" d=" M 1184.1622816444533 244.25692608583466 C 1184.1622816444533 245.91378033532703 1182.8191358939457 247.25692608583466 1181.1622816444533 247.25692608583466 C 1179.5054273949609 247.25692608583466 1178.1622816444533 245.91378033532703 1178.1622816444533 244.25692608583466 C 1178.1622816444533 242.6000718363423 1179.5054273949609 241.25692608583466 1181.1622816444533 241.25692608583466 C 1182.8191358939457 241.25692608583466 1184.1622816444533 242.6000718363423 1184.1622816444533 244.25692608583466 Z" stroke-opacity="1" stroke-linecap="round" stroke-linejoin="round" stroke-miterlimit="10"/><path fill="rgb(97,97,97)" stroke="none" paint-order="stroke fill markers" d=" M 711.8285775802399 734.7206107100886 C 711.8285775802399 736.3774649595811 710.4854318297323 737.7206107100886 708.8285775802399 737.7206107100886 C 707.1717233307475 737.7206107100886 705.8285775802399 736.3774649595811 705.8285775802399 734.7206107100886 C 705.8285775802399 733.0637564605962 707.1717233307475 731.7206107100886 708.8285775802399 731.7206107100886 C 710.4854318297323 731.7206107100886 711.8285775802399 733.0637564605962 711.8285775802399 734.7206107100886 Z" fill-opacity="1"/><path fill="none" stroke="rgb(0,0,0)" paint-order="fill stroke markers" d=" M 711.8285775802399 734.7206107100886 C 711.8285775802399 736.3774649595811 710.4854318297323 737.7206107100886 708.8285775802399 737.7206107100886 C 707.1717233307475 737.7206107100886 705.8285775802399 736.3774649595811 705.8285775802399 734.7206107100886 C 705.8285775802399 733.0637564605962 707.1717233307475 731.7206107100886 708.8285775802399 731.7206107100886 C 710.4854318297323 731.7206107100886 711.8285775802399 733.0637564605962 711.8285775802399 734.7206107100886 Z" stroke-opacity="1" stroke-linecap="round" stroke-linejoin="round" stroke-miterlimit="10"/><path fill="rgb(97,97,97)" stroke="none" paint-order="stroke fill markers" d=" M 1068.22582701051 364.9644282355781 C 1068.22582701051 366.6212824850705 1066.8826812600025 367.9644282355781 1065.22582701051 367.9644282355781 C 1063.5689727610177 367.9644282355781 1062.22582701051 366.6212824850705 1062.22582701051 364.9644282355781 C 1062.22582701051 363.30757398608574 1063.5689727610177 361.9644282355781 1065.22582701051 361.9644282355781 C 1066.8826812600025 361.9644282355781 1068.22582701051 363.30757398608574 1068.22582701051 364.9644282355781 Z" fill-opacity="1"/><path fill="none" stroke="rgb(0,0,0)" paint-order="fill stroke markers" d=" M 1068.22582701051 364.9644282355781 C 1068.22582701051 366.6212824850705 1066.8826812600025 367.9644282355781 1065.22582701051 367.9644282355781 C 1063.5689727610177 367.9644282355781 1062.22582701051 366.6212824850705 1062.22582701051 364.9644282355781 C 1062.22582701051 363.30757398608574 1063.5689727610177 361.9644282355781 1065.22582701051 361.9644282355781 C 1066.8826812600025 361.9644282355781 1068.22582701051 363.30757398608574 1068.22582701051 364.9644282355781 Z" stroke-opacity="1" stroke-linecap="round" stroke-linejoin="round" stroke-miterlimit="10"/><g transform="scale(35,35)"><g transform="translate(30.885714285714286,11.083)"><path fill="rgb(0,0,0)" stroke="none" paint-order="stroke fill markers" d=" M 0.303 -0.316 L 0.303 -0.316 L 0.241 -0.066 L 0.23800000000000002 -0.049 Q 0.23800000000000002 -0.032 0.28400000000000003 -0.031 L 0.28400000000000003 -0.031 L 0.28400000000000003 -0.031 L 0.303 -0.031 Q 0.329 -0.031 0.331 -0.02 Q 0.331 0 0.311 0 L 0.247 -0.002 L 0.246 -0.002 L 0.184 -0.003 L 0.182 -0.003 L 0.056 0 L 0.055 0 Q 0.04 0 0.04 -0.012 Q 0.04 -0.029 0.056 -0.031 L 0.068 -0.031 Q 0.133 -0.031 0.146 -0.045 Q 0.152 -0.052000000000000005 0.158 -0.073 Q 0.158 -0.074 0.159 -0.078 L 0.293 -0.615 Q 0.297 -0.631 0.297 -0.634 Q 0.297 -0.646 0.281 -0.649 L 0.28 -0.649 L 0.28 -0.649 Q 0.278 -0.65 0.275 -0.65 Q 0.251 -0.652 0.232 -0.652 Q 0.20600000000000002 -0.652 0.20400000000000001 -0.66 Q 0.203 -0.662 0.203 -0.664 Q 0.203 -0.681 0.22 -0.683 L 0.22 -0.683 L 0.233 -0.683 L 0.557 -0.683 Q 0.678 -0.683 0.73 -0.609 Q 0.754 -0.5740000000000001 0.754 -0.532 Q 0.754 -0.451 0.671 -0.385 Q 0.583 -0.316 0.47300000000000003 -0.316 L 0.303 -0.316 M 0.375 -0.614 L 0.307 -0.342 L 0.448 -0.342 Q 0.543 -0.342 0.602 -0.395 Q 0.643 -0.433 0.658 -0.522 L 0.658 -0.523 Q 0.661 -0.542 0.661 -0.556 Q 0.661 -0.652 0.525 -0.652 L 0.429 -0.652 Q 0.393 -0.652 0.385 -0.642 L 0.385 -0.642 L 0.385 -0.641 L 0.384 -0.641 L 0.384 -0.64 Q 0.38 -0.634 0.375 -0.614 Z"/></g><g transform="translate(31.527714285714286,11.233) scale(0.7,0.7)"><path fill="rgb(0,0,0)" stroke="none" paint-order="stroke fill markers" d=" M 0.47700000000000004 -0.23600000000000002 L 0.47700000000000004 -0.23600000000000002 L 0.47700000000000004 -0.17400000000000002 Q 0.542 -0.255 0.5750000000000001 -0.372 Q 0.585 -0.392 0.59 -0.393 Q 0.602 -0.393 0.602 -0.383 Q 0.602 -0.366 0.579 -0.307 Q 0.545 -0.221 0.487 -0.148 Q 0.47700000000000004 -0.128 0.47700000000000004 -0.113 Q 0.47700000000000004 -0.011 0.508 -0.011 Q 0.539 -0.011 0.558 -0.046 Q 0.561 -0.052000000000000005 0.5640000000000001 -0.06 Q 0.5680000000000001 -0.07 0.577 -0.07 Q 0.589 -0.07 0.589 -0.06 Q 0.589 -0.041 0.5640000000000001 -0.015 Q 0.538 0.011 0.505 0.011 Q 0.442 0.011 0.418 -0.058 Q 0.41600000000000004 -0.065 0.41400000000000003 -0.073 Q 0.309 0.011 0.203 0.011 Q 0.109 0.011 0.065 -0.064 Q 0.041 -0.105 0.041 -0.158 Q 0.041 -0.26 0.11900000000000001 -0.34700000000000003 Q 0.196 -0.433 0.293 -0.441 Q 0.302 -0.442 0.31 -0.442 Q 0.394 -0.442 0.44 -0.376 Q 0.44 -0.375 0.441 -0.375 Q 0.47700000000000004 -0.322 0.47700000000000004 -0.23600000000000002 M 0.41000000000000003 -0.099 L 0.41000000000000003 -0.099 Q 0.40800000000000003 -0.116 0.40800000000000003 -0.211 Q 0.40800000000000003 -0.334 0.381 -0.379 Q 0.369 -0.399 0.352 -0.40900000000000003 L 0.35100000000000003 -0.41000000000000003 L 0.35100000000000003 -0.41000000000000003 L 0.35000000000000003 -0.41000000000000003 Q 0.332 -0.42 0.309 -0.42 Q 0.23800000000000002 -0.42 0.181 -0.34 L 0.17300000000000001 -0.328 Q 0.137 -0.27 0.12 -0.166 Q 0.115 -0.138 0.115 -0.12 Q 0.115 -0.036000000000000004 0.17400000000000002 -0.016 Q 0.188 -0.011 0.20500000000000002 -0.011 Q 0.309 -0.011 0.41000000000000003 -0.099 Z"/></g></g><g transform="scale(35,35)"><g transform="translate(34.08571428571429,8.168714285714286)"><path fill="rgb(0,0,0)" stroke="none" paint-order="stroke fill markers" d=" M 0.303 -0.316 L 0.303 -0.316 L 0.241 -0.066 L 0.23800000000000002 -0.049 Q 0.23800000000000002 -0.032 0.28400000000000003 -0.031 L 0.28400000000000003 -0.031 L 0.28400000000000003 -0.031 L 0.303 -0.031 Q 0.329 -0.031 0.331 -0.02 Q 0.331 0 0.311 0 L 0.247 -0.002 L 0.246 -0.002 L 0.184 -0.003 L 0.182 -0.003 L 0.056 0 L 0.055 0 Q 0.04 0 0.04 -0.012 Q 0.04 -0.029 0.056 -0.031 L 0.068 -0.031 Q 0.133 -0.031 0.146 -0.045 Q 0.152 -0.052000000000000005 0.158 -0.073 Q 0.158 -0.074 0.159 -0.078 L 0.293 -0.615 Q 0.297 -0.631 0.297 -0.634 Q 0.297 -0.646 0.281 -0.649 L 0.28 -0.649 L 0.28 -0.649 Q 0.278 -0.65 0.275 -0.65 Q 0.251 -0.652 0.232 -0.652 Q 0.20600000000000002 -0.652 0.20400000000000001 -0.66 Q 0.203 -0.662 0.203 -0.664 Q 0.203 -0.681 0.22 -0.683 L 0.22 -0.683 L 0.233 -0.683 L 0.557 -0.683 Q 0.678 -0.683 0.73 -0.609 Q 0.754 -0.5740000000000001 0.754 -0.532 Q 0.754 -0.451 0.671 -0.385 Q 0.583 -0.316 0.47300000000000003 -0.316 L 0.303 -0.316 M 0.375 -0.614 L 0.307 -0.342 L 0.448 -0.342 Q 0.543 -0.342 0.602 -0.395 Q 0.643 -0.433 0.658 -0.522 L 0.658 -0.523 Q 0.661 -0.542 0.661 -0.556 Q 0.661 -0.652 0.525 -0.652 L 0.429 -0.652 Q 0.393 -0.652 0.385 -0.642 L 0.385 -0.642 L 0.385 -0.641 L 0.384 -0.641 L 0.384 -0.64 Q 0.38 -0.634 0.375 -0.614 Z"/></g></g><g transform="scale(35,35)"><g transform="translate(19.97142857142857,22.254428571428573)"><path fill="rgb(0,0,0)" stroke="none" paint-order="stroke fill markers" d=" M 0.303 -0.316 L 0.303 -0.316 L 0.241 -0.066 L 0.23800000000000002 -0.049 Q 0.23800000000000002 -0.032 0.28400000000000003 -0.031 L 0.28400000000000003 -0.031 L 0.28400000000000003 -0.031 L 0.303 -0.031 Q 0.329 -0.031 0.331 -0.02 Q 0.331 0 0.311 0 L 0.247 -0.002 L 0.246 -0.002 L 0.184 -0.003 L 0.182 -0.003 L 0.056 0 L 0.055 0 Q 0.04 0 0.04 -0.012 Q 0.04 -0.029 0.056 -0.031 L 0.068 -0.031 Q 0.133 -0.031 0.146 -0.045 Q 0.152 -0.052000000000000005 0.158 -0.073 Q 0.158 -0.074 0.159 -0.078 L 0.293 -0.615 Q 0.297 -0.631 0.297 -0.634 Q 0.297 -0.646 0.281 -0.649 L 0.28 -0.649 L 0.28 -0.649 Q 0.278 -0.65 0.275 -0.65 Q 0.251 -0.652 0.232 -0.652 Q 0.20600000000000002 -0.652 0.20400000000000001 -0.66 Q 0.203 -0.662 0.203 -0.664 Q 0.203 -0.681 0.22 -0.683 L 0.22 -0.683 L 0.233 -0.683 L 0.557 -0.683 Q 0.678 -0.683 0.73 -0.609 Q 0.754 -0.5740000000000001 0.754 -0.532 Q 0.754 -0.451 0.671 -0.385 Q 0.583 -0.316 0.47300000000000003 -0.316 L 0.303 -0.316 M 0.375 -0.614 L 0.307 -0.342 L 0.448 -0.342 Q 0.543 -0.342 0.602 -0.395 Q 0.643 -0.433 0.658 -0.522 L 0.658 -0.523 Q 0.661 -0.542 0.661 -0.556 Q 0.661 -0.652 0.525 -0.652 L 0.429 -0.652 Q 0.393 -0.652 0.385 -0.642 L 0.385 -0.642 L 0.385 -0.641 L 0.384 -0.641 L 0.384 -0.64 Q 0.38 -0.634 0.375 -0.614 Z"/></g><g transform="translate(20.61342857142857,22.40442857142857) scale(0.7,0.7)"><path fill="rgb(0,0,0)" stroke="none" paint-order="stroke fill markers" d=" M 0.028 0.169 L 0.18 -0.437 Q 0.209 -0.551 0.292 -0.631 Q 0.37 -0.705 0.456 -0.705 Q 0.539 -0.705 0.5750000000000001 -0.639 Q 0.59 -0.611 0.59 -0.577 Q 0.59 -0.502 0.528 -0.439 Q 0.507 -0.418 0.482 -0.403 Q 0.549 -0.357 0.549 -0.264 Q 0.549 -0.161 0.46900000000000003 -0.076 Q 0.392 0.005 0.296 0.012 L 0.28300000000000003 0.012 Q 0.186 0.012 0.14100000000000001 -0.063 Q 0.129 -0.083 0.123 -0.105 L 0.048 0.188 L 0.047 0.19 Q 0.043000000000000003 0.194 0.037 0.194 Q 0.025 0.194 0.025 0.184 Q 0.025 0.181 0.028 0.169 M 0.328 -0.401 Q 0.34500000000000003 -0.395 0.371 -0.395 Q 0.401 -0.395 0.419 -0.403 Q 0.406 -0.40900000000000003 0.379 -0.40900000000000003 Q 0.34400000000000003 -0.40900000000000003 0.328 -0.401 M 0.45 -0.421 Q 0.511 -0.467 0.525 -0.577 L 0.525 -0.578 L 0.525 -0.58 Q 0.527 -0.594 0.527 -0.602 Q 0.527 -0.673 0.46900000000000003 -0.682 Q 0.462 -0.683 0.455 -0.683 Q 0.372 -0.683 0.299 -0.606 Q 0.23 -0.534 0.2 -0.41600000000000004 L 0.154 -0.231 Q 0.14100000000000001 -0.179 0.14100000000000001 -0.156 Q 0.14100000000000001 -0.074 0.2 -0.034 Q 0.234 -0.01 0.281 -0.01 Q 0.359 -0.01 0.41500000000000004 -0.094 Q 0.422 -0.10300000000000001 0.427 -0.113 Q 0.462 -0.179 0.47400000000000003 -0.274 Q 0.47600000000000003 -0.291 0.47600000000000003 -0.302 Q 0.47600000000000003 -0.355 0.446 -0.386 Q 0.41400000000000003 -0.373 0.371 -0.373 Q 0.303 -0.373 0.303 -0.399 Q 0.303 -0.431 0.381 -0.431 Q 0.422 -0.431 0.45 -0.421 Z"/></g></g><g transform="scale(35,35)"><g transform="translate(31.65714285714286,22.173857142857145)"><path fill="rgb(0,0,0)" stroke="none" paint-order="stroke fill markers" d=" M 0.47700000000000004 -0.23600000000000002 L 0.47700000000000004 -0.23600000000000002 L 0.47700000000000004 -0.17400000000000002 Q 0.542 -0.255 0.5750000000000001 -0.372 Q 0.585 -0.392 0.59 -0.393 Q 0.602 -0.393 0.602 -0.383 Q 0.602 -0.366 0.579 -0.307 Q 0.545 -0.221 0.487 -0.148 Q 0.47700000000000004 -0.128 0.47700000000000004 -0.113 Q 0.47700000000000004 -0.011 0.508 -0.011 Q 0.539 -0.011 0.558 -0.046 Q 0.561 -0.052000000000000005 0.5640000000000001 -0.06 Q 0.5680000000000001 -0.07 0.577 -0.07 Q 0.589 -0.07 0.589 -0.06 Q 0.589 -0.041 0.5640000000000001 -0.015 Q 0.538 0.011 0.505 0.011 Q 0.442 0.011 0.418 -0.058 Q 0.41600000000000004 -0.065 0.41400000000000003 -0.073 Q 0.309 0.011 0.203 0.011 Q 0.109 0.011 0.065 -0.064 Q 0.041 -0.105 0.041 -0.158 Q 0.041 -0.26 0.11900000000000001 -0.34700000000000003 Q 0.196 -0.433 0.293 -0.441 Q 0.302 -0.442 0.31 -0.442 Q 0.394 -0.442 0.44 -0.376 Q 0.44 -0.375 0.441 -0.375 Q 0.47700000000000004 -0.322 0.47700000000000004 -0.23600000000000002 M 0.41000000000000003 -0.099 L 0.41000000000000003 -0.099 Q 0.40800000000000003 -0.116 0.40800000000000003 -0.211 Q 0.40800000000000003 -0.334 0.381 -0.379 Q 0.369 -0.399 0.352 -0.40900000000000003 L 0.35100000000000003 -0.41000000000000003 L 0.35100000000000003 -0.41000000000000003 L 0.35000000000000003 -0.41000000000000003 Q 0.332 -0.42 0.309 -0.42 Q 0.23800000000000002 -0.42 0.181 -0.34 L 0.17300000000000001 -0.328 Q 0.137 -0.27 0.12 -0.166 Q 0.115 -0.138 0.115 -0.12 Q 0.115 -0.036000000000000004 0.17400000000000002 -0.016 Q 0.188 -0.011 0.20500000000000002 -0.011 Q 0.309 -0.011 0.41000000000000003 -0.099 Z"/></g></g><g transform="scale(35,35)"><g transform="translate(23.34285714285714,23.951142857142855)"><path fill="rgb(0,0,0)" stroke="none" paint-order="stroke fill markers" d=" M 0.028 0.169 L 0.18 -0.437 Q 0.209 -0.551 0.292 -0.631 Q 0.37 -0.705 0.456 -0.705 Q 0.539 -0.705 0.5750000000000001 -0.639 Q 0.59 -0.611 0.59 -0.577 Q 0.59 -0.502 0.528 -0.439 Q 0.507 -0.418 0.482 -0.403 Q 0.549 -0.357 0.549 -0.264 Q 0.549 -0.161 0.46900000000000003 -0.076 Q 0.392 0.005 0.296 0.012 L 0.28300000000000003 0.012 Q 0.186 0.012 0.14100000000000001 -0.063 Q 0.129 -0.083 0.123 -0.105 L 0.048 0.188 L 0.047 0.19 Q 0.043000000000000003 0.194 0.037 0.194 Q 0.025 0.194 0.025 0.184 Q 0.025 0.181 0.028 0.169 M 0.328 -0.401 Q 0.34500000000000003 -0.395 0.371 -0.395 Q 0.401 -0.395 0.419 -0.403 Q 0.406 -0.40900000000000003 0.379 -0.40900000000000003 Q 0.34400000000000003 -0.40900000000000003 0.328 -0.401 M 0.45 -0.421 Q 0.511 -0.467 0.525 -0.577 L 0.525 -0.578 L 0.525 -0.58 Q 0.527 -0.594 0.527 -0.602 Q 0.527 -0.673 0.46900000000000003 -0.682 Q 0.462 -0.683 0.455 -0.683 Q 0.372 -0.683 0.299 -0.606 Q 0.23 -0.534 0.2 -0.41600000000000004 L 0.154 -0.231 Q 0.14100000000000001 -0.179 0.14100000000000001 -0.156 Q 0.14100000000000001 -0.074 0.2 -0.034 Q 0.234 -0.01 0.281 -0.01 Q 0.359 -0.01 0.41500000000000004 -0.094 Q 0.422 -0.10300000000000001 0.427 -0.113 Q 0.462 -0.179 0.47400000000000003 -0.274 Q 0.47600000000000003 -0.291 0.47600000000000003 -0.302 Q 0.47600000000000003 -0.355 0.446 -0.386 Q 0.41400000000000003 -0.373 0.371 -0.373 Q 0.303 -0.373 0.303 -0.399 Q 0.303 -0.431 0.381 -0.431 Q 0.422 -0.431 0.45 -0.421 Z"/></g></g><text fill="rgb(0,0,0)" stroke="none" font-family="geogebra-sans-serif, sans-serif" font-size="32px" font-style="italic" font-weight="normal" text-decoration="normal" x="1221" y="685" text-anchor="start" dominant-baseline="alphabetic" fill-opacity="1">x</text><text fill="rgb(0,0,0)" stroke="none" font-family="geogebra-sans-serif, sans-serif" font-size="32px" font-style="italic" font-weight="normal" text-decoration="normal" x="895" y="795" text-anchor="start" dominant-baseline="alphabetic" fill-opacity="1">y</text><text fill="rgb(0,0,0)" stroke="none" font-family="geogebra-sans-serif, sans-serif" font-size="32px" font-style="italic" font-weight="normal" text-decoration="normal" x="1219" y="440" text-anchor="start" dominant-baseline="alphabetic" fill-opacity="1">z</text><g transform="scale(35,35)"><g transform="translate(25.428571428571427,16.768714285714285)"><path fill="rgb(0,0,0)" stroke="none" paint-order="stroke fill markers" d=" M 0.74 -0.436 L 0.74 -0.436 Q 0.74 -0.281 0.63 -0.149 Q 0.531 -0.029 0.398 0.009000000000000001 Q 0.35100000000000003 0.022 0.305 0.022 Q 0.18 0.022 0.108 -0.066 Q 0.049 -0.138 0.049 -0.245 Q 0.049 -0.395 0.156 -0.529 Q 0.255 -0.65 0.388 -0.6900000000000001 Q 0.437 -0.705 0.485 -0.705 Q 0.612 -0.705 0.684 -0.613 Q 0.74 -0.541 0.74 -0.436 M 0.311 -0.004 L 0.311 -0.004 Q 0.405 -0.004 0.492 -0.088 Q 0.51 -0.105 0.525 -0.124 Q 0.623 -0.246 0.646 -0.41500000000000004 Q 0.651 -0.448 0.651 -0.47500000000000003 Q 0.651 -0.612 0.559 -0.661 Q 0.558 -0.661 0.557 -0.662 Q 0.521 -0.68 0.47900000000000004 -0.68 Q 0.385 -0.68 0.297 -0.599 Q 0.261 -0.5670000000000001 0.233 -0.524 Q 0.157 -0.40900000000000003 0.14400000000000002 -0.249 Q 0.14200000000000002 -0.231 0.14200000000000002 -0.217 Q 0.14200000000000002 -0.089 0.219 -0.033 Q 0.259 -0.004 0.311 -0.004 Z"/></g></g></g></g></svg>